<svg width="20" height="20" viewBox="0 0 20 20" fill="none" xmlns="http://www.w3.org/2000/svg">
<g clip-path="url(#clip0_4_3915)">
<path d="M3.57143 8.75H4.11384C5.10625 10.957 7.36429 12.5 10 12.5C12.6357 12.5 14.8938 10.957 15.8862 8.75H16.4286C16.7821 8.75 17.0714 8.46875 17.0714 8.125V4.375C17.0714 4.03125 16.7821 3.75 16.4286 3.75H15.8862C14.8938 1.54297 12.6357 0 10 0C7.36429 0 5.10625 1.54297 4.11384 3.75H3.57143C3.21786 3.75 2.92857 4.03125 2.92857 4.375V8.125C2.92857 8.46875 3.21786 8.75 3.57143 8.75ZM5.17857 5.3125C5.17857 4.44922 6.04241 3.75 7.10714 3.75H12.8929C13.9576 3.75 14.8214 4.44922 14.8214 5.3125V6.25C14.8214 8.32031 13.0938 10 10.9643 10H9.03571C6.90625 10 5.17857 8.32031 5.17857 6.25V5.3125ZM8.07143 8.125L8.55357 6.71875L10 6.25L8.55357 5.78125L8.07143 4.375L7.58929 5.78125L6.14286 6.25L7.58929 6.71875L8.07143 8.125ZM14.1625 12.5547C12.9612 13.3086 11.5348 13.75 10 13.75C8.46518 13.75 7.03884 13.3086 5.8375 12.5547C3.12545 12.832 1 15.0391 1 17.75V18.125C1 19.1602 1.86384 20 2.92857 20H6.14286V17.5C6.14286 16.8086 6.71741 16.25 7.42857 16.25H12.5714C13.2826 16.25 13.8571 16.8086 13.8571 17.5V20H17.0714C18.1362 20 19 19.1602 19 18.125V17.75C19 15.0391 16.8746 12.832 14.1625 12.5547ZM11.9286 17.5C11.575 17.5 11.2857 17.7812 11.2857 18.125C11.2857 18.4688 11.575 18.75 11.9286 18.75C12.2821 18.75 12.5714 18.4688 12.5714 18.125C12.5714 17.7812 12.2821 17.5 11.9286 17.5ZM8.07143 17.5C7.71786 17.5 7.42857 17.7812 7.42857 18.125V20H8.71429V18.125C8.71429 17.7812 8.425 17.5 8.07143 17.5Z" fill="#F27137"/>
</g>
<defs>
<clipPath id="clip0_4_3915">
<rect width="18" height="20" fill="white" transform="translate(1)"/>
</clipPath>
</defs>
</svg>
