<svg width="40" height="40" viewBox="0 0 40 40" fill="none" xmlns="http://www.w3.org/2000/svg">
<path d="M19.9996 28.75C19.6597 28.7482 19.3343 28.6157 19.0944 28.3815C18.8545 28.1474 18.7195 27.8305 18.719 27.5H17.428C17.428 28.163 17.699 28.7989 18.1812 29.2678C18.6635 29.7366 19.3176 30 19.9996 30C20.6817 30 21.3357 29.7366 21.818 29.2678C22.3003 28.7989 22.5712 28.163 22.5712 27.5H21.2906C21.2903 27.6645 21.2567 27.8273 21.1916 27.9792C21.1266 28.1311 21.0314 28.269 20.9115 28.3851C20.7917 28.5012 20.6494 28.5931 20.4929 28.6558C20.3365 28.7184 20.1688 28.7504 19.9996 28.75ZM28.4128 23.079C27.2895 22.039 26.4337 20.95 26.4337 17.262C26.4003 15.7482 25.7889 14.3007 24.7186 13.2008C23.6482 12.1009 22.1954 11.4273 20.6425 11.311V10.625C20.6425 10.4592 20.5748 10.3003 20.4542 10.1831C20.3337 10.0658 20.1701 10 19.9996 10C19.8291 10 19.6656 10.0658 19.545 10.1831C19.4245 10.3003 19.3567 10.4592 19.3567 10.625V11.311C17.8041 11.4269 16.3515 12.1005 15.2817 13.2006C14.2119 14.3007 13.6016 15.7485 13.5696 17.262C13.5696 20.95 12.7097 22.039 11.5864 23.079C11.3132 23.3297 11.124 23.6546 11.0435 24.0113C10.9629 24.3681 10.9948 24.7401 11.1349 25.079C11.2781 25.4267 11.5258 25.7244 11.8456 25.9333C12.1654 26.1422 12.5425 26.2525 12.9278 26.25H27.0715C27.4569 26.2527 27.8343 26.1425 28.1543 25.9336C28.4743 25.7247 28.7221 25.4269 28.8654 25.079C29.0054 24.74 29.0371 24.3679 28.9563 24.0112C28.8756 23.6544 28.6862 23.3296 28.4128 23.079ZM27.0715 25H12.9278C12.8044 25.0055 12.6821 24.9744 12.5773 24.9108C12.4724 24.8473 12.3899 24.7543 12.3406 24.6442C12.2913 24.534 12.2776 24.4119 12.3013 24.2941C12.3249 24.1762 12.3849 24.0681 12.4731 23.984C13.8741 22.684 14.8554 21.236 14.8554 17.262C14.8883 15.9676 15.4486 14.7389 16.413 13.8459C17.3774 12.953 18.6671 12.4689 19.9986 12.5C21.3301 12.4689 22.6198 12.953 23.5842 13.8459C24.5486 14.7389 25.1089 15.9676 25.1418 17.262C25.1418 21.221 26.1148 22.68 27.5241 23.984C27.6122 24.0679 27.672 24.1759 27.6957 24.2936C27.7194 24.4112 27.7059 24.5331 27.6569 24.6432C27.6078 24.7532 27.5257 24.8462 27.4211 24.9099C27.3166 24.9736 27.1947 25.005 27.0715 25Z" fill="#77889A"/>
<circle cx="25" cy="15" r="3" fill="#F73F49"/>
</svg>
