<svg width="40" height="40" viewBox="0 0 40 40" fill="none" xmlns="http://www.w3.org/2000/svg">
<circle cx="20" cy="20" r="20" fill="#F27137" fill-opacity="0.1"/>
<g clip-path="url(#clip0_166_530)">
<path d="M20.0001 14C23.8595 14 27.0001 16.4688 27.0001 19.5C27.0001 22.5312 23.8595 25 20.0001 25C19.1157 25 18.2407 24.8656 17.4001 24.6L16.9251 24.45L16.5189 24.7375C15.8001 25.2469 14.6907 25.8406 13.3126 25.975C13.6876 25.5031 14.2439 24.7125 14.5876 23.8L14.8095 23.2156L14.3814 22.7594C13.4782 21.8031 13.0001 20.675 13.0001 19.5C13.0001 16.4688 16.1407 14 20.0001 14ZM20.0001 13C15.5814 13 12.0001 15.9094 12.0001 19.5C12.0001 20.9875 12.622 22.35 13.6532 23.4469C13.1876 24.6781 12.2189 25.7219 12.2032 25.7344C11.997 25.9531 11.9407 26.2719 12.0595 26.5469C12.1782 26.8219 12.447 27 12.747 27C14.6689 27 16.1845 26.1969 17.0939 25.5531C18.0001 25.8375 18.9751 26 20.0001 26C24.4189 26 28.0001 23.0906 28.0001 19.5C28.0001 15.9094 24.4189 13 20.0001 13Z" fill="#F27137"/>
</g>
<defs>
<clipPath id="clip0_166_530">
<rect width="16" height="16" fill="white" transform="translate(12 12)"/>
</clipPath>
</defs>
</svg>
