<svg width="16" height="16" viewBox="0 0 16 16" fill="none" xmlns="http://www.w3.org/2000/svg">
<path d="M13.1298 11.0925C12.8493 11.7138 12.7154 11.9908 12.354 12.5403C11.8507 13.307 11.1405 14.2617 10.2604 14.2697C9.47835 14.2771 9.27772 13.7612 8.21638 13.7669C7.15561 13.7726 6.93388 14.2788 6.15184 14.2714C5.27176 14.2634 4.59973 13.4016 4.09528 12.6344C2.68737 10.49 2.54031 7.97404 3.40899 6.63682C4.0263 5.68606 5.00044 5.13031 5.91643 5.13031C6.84895 5.13031 7.43491 5.6416 8.20612 5.6416C8.95396 5.6416 9.40996 5.12974 10.4878 5.12974C11.3029 5.12974 12.1659 5.5732 12.7815 6.33985C10.766 7.44451 11.0932 10.3224 13.1298 11.0925Z" stroke="#171A1F" stroke-width="1.368" stroke-miterlimit="10" stroke-linecap="round"/>
<path d="M9.7685 3.1131C10.139 2.63772 10.42 1.96683 10.318 1.28112C9.71264 1.32273 9.00584 1.70748 8.59259 2.20908C8.21753 2.66451 7.90802 3.33939 8.02829 3.99603C8.68835 4.01655 9.37178 3.62211 9.7685 3.1131Z" fill="#171A1F"/>
</svg>
