<svg width="28" height="28" viewBox="0 0 28 28" fill="none" xmlns="http://www.w3.org/2000/svg">
<g clip-path="url(#clip0_4_3818)">
<path d="M24.7188 23.625C24.7188 24.2266 24.2266 24.7188 23.625 24.7188C23.0234 24.7188 22.5312 24.2266 22.5312 23.625C22.5312 23.0234 23.0234 22.5312 23.625 22.5312C24.2266 22.5312 24.7188 23.0234 24.7188 23.625ZM20.125 22.5312C19.5234 22.5312 19.0312 23.0234 19.0312 23.625C19.0312 24.2266 19.5234 24.7188 20.125 24.7188C20.7266 24.7188 21.2188 24.2266 21.2188 23.625C21.2188 23.0234 20.7266 22.5312 20.125 22.5312ZM28 19.9062V25.5938C28 26.9227 26.9227 28 25.5938 28H2.40625C1.07734 28 0 26.9227 0 25.5938V19.9062C0 18.5773 1.07734 17.5 2.40625 17.5H9.1875V12.0695H6.30547C4.35859 12.0695 3.38516 9.7125 4.75781 8.33437L12.4523 0.639844C13.3055 -0.213281 14.6891 -0.213281 15.5477 0.639844L23.2422 8.33437C24.6203 9.7125 23.6414 12.0695 21.6945 12.0695H18.8125V17.5H25.5938C26.9227 17.5 28 18.5773 28 19.9062ZM10.9375 10.3195V20.5625C10.9375 20.8031 11.1344 21 11.375 21H16.625C16.8656 21 17.0625 20.8031 17.0625 20.5625V10.3195H21.6945C22.0828 10.3195 22.2797 9.84922 22.0063 9.57031L14.3117 1.87578C14.1422 1.70625 13.8633 1.70625 13.6937 1.87578L5.99922 9.57031C5.72578 9.84375 5.91719 10.3195 6.31094 10.3195H10.9375ZM26.25 19.9062C26.25 19.5453 25.9547 19.25 25.5938 19.25H18.8125V20.5625C18.8125 21.7711 17.8336 22.75 16.625 22.75H11.375C10.1664 22.75 9.1875 21.7711 9.1875 20.5625V19.25H2.40625C2.04531 19.25 1.75 19.5453 1.75 19.9062V25.5938C1.75 25.9547 2.04531 26.25 2.40625 26.25H25.5938C25.9547 26.25 26.25 25.9547 26.25 25.5938V19.9062Z" fill="#77889A"/>
</g>
<defs>
<clipPath id="clip0_4_3818">
<rect width="28" height="28" fill="white"/>
</clipPath>
</defs>
</svg>
