<svg width="40" height="40" viewBox="0 0 40 40" fill="none" xmlns="http://www.w3.org/2000/svg">
<circle cx="20" cy="20" r="20" fill="#4443E4" fill-opacity="0.1"/>
<g clip-path="url(#clip0_166_516)">
<path d="M26.125 25.5C26.125 25.8438 25.8438 26.125 25.5 26.125C25.1562 26.125 24.875 25.8438 24.875 25.5C24.875 25.1562 25.1562 24.875 25.5 24.875C25.8438 24.875 26.125 25.1562 26.125 25.5ZM23.5 24.875C23.1562 24.875 22.875 25.1562 22.875 25.5C22.875 25.8438 23.1562 26.125 23.5 26.125C23.8438 26.125 24.125 25.8438 24.125 25.5C24.125 25.1562 23.8438 24.875 23.5 24.875ZM28 23.375V26.625C28 27.3844 27.3844 28 26.625 28H13.375C12.6156 28 12 27.3844 12 26.625V23.375C12 22.6156 12.6156 22 13.375 22H17.25V18.8969H15.6031C14.4906 18.8969 13.9344 17.55 14.7188 16.7625L19.1156 12.3656C19.6031 11.8781 20.3937 11.8781 20.8844 12.3656L25.2812 16.7625C26.0688 17.55 25.5094 18.8969 24.3969 18.8969H22.75V22H26.625C27.3844 22 28 22.6156 28 23.375ZM18.25 17.8969V23.75C18.25 23.8875 18.3625 24 18.5 24H21.5C21.6375 24 21.75 23.8875 21.75 23.75V17.8969H24.3969C24.6188 17.8969 24.7312 17.6281 24.575 17.4688L20.1781 13.0719C20.0813 12.975 19.9219 12.975 19.825 13.0719L15.4281 17.4688C15.2719 17.625 15.3813 17.8969 15.6063 17.8969H18.25ZM27 23.375C27 23.1687 26.8313 23 26.625 23H22.75V23.75C22.75 24.4406 22.1906 25 21.5 25H18.5C17.8094 25 17.25 24.4406 17.25 23.75V23H13.375C13.1688 23 13 23.1687 13 23.375V26.625C13 26.8313 13.1688 27 13.375 27H26.625C26.8313 27 27 26.8313 27 26.625V23.375Z" fill="#4443E4"/>
</g>
<defs>
<clipPath id="clip0_166_516">
<rect width="16" height="16" fill="white" transform="translate(12 12)"/>
</clipPath>
</defs>
</svg>
