<svg width="42" height="41" viewBox="0 0 42 41" fill="none" xmlns="http://www.w3.org/2000/svg">
<rect width="42" height="41" rx="6" fill="#E6EEFF"/>
<g clip-path="url(#clip0_4_3782)">
<path d="M24.5566 10.084C25.2326 10.3465 25.5797 11.1406 25.334 11.8598L19.1096 30.0878C18.8626 30.8071 18.1177 31.1772 17.443 30.916C16.767 30.6535 16.4199 29.8594 16.6656 29.1402L22.89 10.9122C23.137 10.1929 23.8819 9.82281 24.5566 10.084ZM11.138 20.836L15.7348 25.7369C16.2418 26.2776 16.2418 27.1544 15.7348 27.6951C15.6176 27.8231 15.4754 27.9252 15.3172 27.995C15.1591 28.0648 14.9883 28.1009 14.8157 28.1009C14.643 28.1009 14.4723 28.0648 14.3141 27.995C14.1559 27.9252 14.0138 27.8231 13.8966 27.6951L8.38068 21.8164C8.13655 21.5497 8.00098 21.1998 8.00098 20.8366C8.00098 20.4735 8.13655 20.1236 8.38068 19.8569L13.8966 13.9769C14.0138 13.8489 14.1559 13.7468 14.3141 13.677C14.4723 13.6072 14.643 13.5711 14.8157 13.5711C14.9883 13.5711 15.1591 13.6072 15.3172 13.677C15.4754 13.7468 15.6176 13.8489 15.7348 13.9769C15.9793 14.2437 16.1151 14.5938 16.1151 14.9573C16.1151 15.3208 15.9793 15.6709 15.7348 15.9377L11.138 20.836ZM30.8616 20.836L26.2648 15.9377C26.0207 15.671 25.8851 15.3211 25.8851 14.958C25.8851 14.5948 26.0207 14.2449 26.2648 13.9782C26.382 13.8502 26.5241 13.7481 26.6823 13.6783C26.8405 13.6085 27.0112 13.5724 27.1839 13.5724C27.3565 13.5724 27.5273 13.6085 27.6854 13.6783C27.8436 13.7481 27.9858 13.8502 28.103 13.9782L33.6189 19.8569C34.1259 20.3976 34.1259 21.2744 33.6189 21.8164L28.103 27.6938C27.9858 27.8218 27.8436 27.9239 27.6854 27.9937C27.5273 28.0635 27.3565 28.0996 27.1839 28.0996C27.0112 28.0996 26.8405 28.0635 26.6823 27.9937C26.5241 27.9239 26.382 27.8218 26.2648 27.6938C26.021 27.4271 25.8857 27.0776 25.8857 26.7147C25.8857 26.3518 26.021 26.0022 26.2648 25.7356L30.8616 20.836Z" fill="#4443E4"/>
</g>
<defs>
<clipPath id="clip0_4_3782">
<rect width="26" height="21" fill="white" transform="translate(8 10)"/>
</clipPath>
</defs>
</svg>
