<svg width="250" height="272" viewBox="0 0 250 272" fill="none" xmlns="http://www.w3.org/2000/svg">
<g filter="url(#filter0_dddddd_237_4554)">
<rect x="80" y="1.29639" width="90" height="90" rx="20" fill="#4443E4"/>
</g>
<path d="M134.11 65.2964V34.8872H109V65.2964H114.849V63.4923C114.849 61.2239 116.632 59.3749 118.792 59.3749H124.318C126.48 59.3749 128.276 61.2239 128.276 63.4923V65.2964H134.11ZM115.933 54.4251C115.933 54.5864 115.904 54.7542 115.846 54.9032C115.787 55.0522 115.705 55.1899 115.597 55.3044C115.488 55.4184 115.357 55.5047 115.215 55.5664C115.074 55.6281 114.915 55.6587 114.761 55.6587H111.99C111.837 55.6587 111.678 55.6281 111.536 55.5664C111.394 55.5047 111.263 55.4184 111.155 55.3044C111.046 55.1904 110.964 55.0527 110.906 54.9032C110.847 54.7542 110.818 54.5869 110.818 54.4251V51.5413C110.818 51.38 110.847 51.2127 110.906 51.0632C110.964 50.9141 111.047 50.7765 111.155 50.662C111.263 50.548 111.394 50.4616 111.536 50.3999C111.678 50.3383 111.837 50.3072 111.99 50.3072H114.761C114.914 50.3072 115.073 50.3378 115.215 50.3999C115.357 50.4616 115.488 50.548 115.597 50.662C115.705 50.7765 115.787 50.9136 115.846 51.0632C115.904 51.2122 115.933 51.3795 115.933 51.5413V54.4251ZM115.933 45.8972C115.933 46.0585 115.904 46.2258 115.846 46.3753C115.787 46.5243 115.705 46.662 115.597 46.776C115.488 46.8905 115.357 46.9764 115.215 47.038C115.074 47.0997 114.915 47.1308 114.761 47.1308H111.99C111.837 47.1308 111.678 47.1002 111.536 47.038C111.394 46.9764 111.263 46.89 111.155 46.776C111.046 46.662 110.964 46.5243 110.906 46.3753C110.847 46.2263 110.818 46.0585 110.818 45.8972V42.9981C110.818 42.8368 110.847 42.6848 110.906 42.5353C110.964 42.3862 111.047 42.2486 111.155 42.1341C111.263 42.0201 111.394 41.9184 111.536 41.8563C111.678 41.7946 111.837 41.7635 111.99 41.7635H114.761C114.914 41.7635 115.073 41.7941 115.215 41.8563C115.357 41.9179 115.488 42.0196 115.597 42.1341C115.705 42.2481 115.787 42.3857 115.846 42.5353C115.904 42.6843 115.933 42.8363 115.933 42.9981V45.8972ZM118.997 42.8595C118.997 42.6981 119.026 42.5308 119.085 42.3813C119.144 42.2323 119.226 42.0946 119.335 41.9801C119.443 41.8661 119.574 41.7798 119.716 41.7181C119.858 41.6564 120.017 41.6258 120.17 41.6258H122.648C122.801 41.6258 122.96 41.6564 123.102 41.7181C123.244 41.7798 123.375 41.8661 123.483 41.9801C123.592 42.0941 123.674 42.2318 123.733 42.3813C123.791 42.5303 123.821 42.6976 123.821 42.8595V45.4501C123.821 45.6115 123.792 45.7634 123.733 45.9125C123.674 46.0615 123.592 46.1992 123.483 46.3136C123.375 46.4276 123.244 46.5293 123.102 46.591C122.96 46.6526 122.801 46.6837 122.648 46.6837H120.17C120.017 46.6837 119.858 46.6531 119.716 46.591C119.574 46.5293 119.443 46.4276 119.335 46.3136C119.226 46.1997 119.144 46.062 119.085 45.9125C119.027 45.7634 118.997 45.6115 118.997 45.4501V42.8595ZM123.893 54.055C123.893 54.2163 123.864 54.3683 123.805 54.5178C123.746 54.6669 123.664 54.8045 123.556 54.9185C123.447 55.033 123.316 55.1342 123.175 55.1963C123.033 55.258 122.874 55.2886 122.72 55.2886H120.17C120.016 55.2886 119.857 55.258 119.715 55.1963C119.573 55.1347 119.442 55.033 119.334 54.9185C119.225 54.8045 119.143 54.6669 119.085 54.5178C119.026 54.3688 118.996 54.2168 118.996 54.055V51.3874C118.996 51.226 119.025 51.0587 119.085 50.9092C119.143 50.7602 119.225 50.6225 119.334 50.5085C119.442 50.3945 119.573 50.3082 119.715 50.2465C119.857 50.1848 120.016 50.1537 120.17 50.1537H122.72C122.874 50.1537 123.033 50.1843 123.175 50.2465C123.316 50.3082 123.447 50.3945 123.556 50.5085C123.665 50.6225 123.746 50.7602 123.805 50.9092C123.863 51.0587 123.893 51.226 123.893 51.3874V54.055ZM127.176 42.9981C127.176 42.8368 127.206 42.6848 127.265 42.5353C127.323 42.3862 127.405 42.2486 127.514 42.1341C127.622 42.0201 127.753 41.9184 127.895 41.8563C128.037 41.7946 128.196 41.7635 128.349 41.7635H131.119C131.273 41.7635 131.432 41.7941 131.574 41.8563C131.716 41.9179 131.847 42.0196 131.955 42.1341C132.064 42.2481 132.146 42.3857 132.204 42.5353C132.263 42.6843 132.292 42.8363 132.292 42.9981V45.8972C132.292 46.0585 132.263 46.2258 132.204 46.3753C132.146 46.5243 132.064 46.662 131.955 46.776C131.847 46.8905 131.716 46.9764 131.574 47.038C131.432 47.0997 131.273 47.1308 131.119 47.1308H128.349C128.196 47.1308 128.037 47.1002 127.895 47.038C127.753 46.9764 127.622 46.89 127.514 46.776C127.405 46.662 127.323 46.5243 127.265 46.3753C127.206 46.2263 127.176 46.0585 127.176 45.8972V42.9981ZM127.895 55.5659C127.753 55.5043 127.623 55.4179 127.514 55.3039C127.405 55.1899 127.324 55.0522 127.265 54.9027C127.206 54.7537 127.177 54.5864 127.177 54.4246V51.5413C127.177 51.38 127.206 51.2127 127.265 51.0632C127.324 50.9141 127.406 50.7765 127.514 50.662C127.623 50.548 127.753 50.4616 127.895 50.3999C128.037 50.3383 128.196 50.3072 128.35 50.3072H131.12C131.273 50.3072 131.432 50.3378 131.574 50.3999C131.716 50.4616 131.847 50.548 131.956 50.662C132.064 50.7765 132.146 50.9136 132.205 51.0632C132.264 51.2122 132.293 51.3795 132.293 51.5413V54.4251C132.293 54.5864 132.264 54.7542 132.205 54.9032C132.146 55.0522 132.064 55.1899 131.956 55.3044C131.847 55.4184 131.717 55.5047 131.574 55.5664C131.433 55.6281 131.273 55.6587 131.12 55.6587H128.349C128.196 55.6587 128.037 55.6276 127.895 55.5659Z" fill="white"/>
<path d="M139.404 27.2964H115.219L110.569 32.4185H134.737L139.404 27.2964Z" fill="white"/>
<path d="M136.455 63.4489L141 58.4423V29.1108L136.455 34.0997V63.4489Z" fill="white"/>
<path d="M118.789 61.8368C117.9 61.8368 117.19 62.5854 117.19 63.4948V65.2924H125.924V63.4948C125.924 62.5854 125.216 61.8368 124.32 61.8368H118.789Z" fill="white"/>
<defs>
<filter id="filter0_dddddd_237_4554" x="0" y="9.04799e-05" width="250" height="271.296" filterUnits="userSpaceOnUse" color-interpolation-filters="sRGB">
<feFlood flood-opacity="0" result="BackgroundImageFix"/>
<feColorMatrix in="SourceAlpha" type="matrix" values="0 0 0 0 0 0 0 0 0 0 0 0 0 0 0 0 0 0 127 0" result="hardAlpha"/>
<feOffset dy="1.85185"/>
<feGaussianBlur stdDeviation="1.57407"/>
<feColorMatrix type="matrix" values="0 0 0 0 0.94902 0 0 0 0 0.721569 0 0 0 0 0.92549 0 0 0 0.0168519 0"/>
<feBlend mode="normal" in2="BackgroundImageFix" result="effect1_dropShadow_237_4554"/>
<feColorMatrix in="SourceAlpha" type="matrix" values="0 0 0 0 0 0 0 0 0 0 0 0 0 0 0 0 0 0 127 0" result="hardAlpha"/>
<feOffset dy="8.14815"/>
<feGaussianBlur stdDeviation="3.25926"/>
<feColorMatrix type="matrix" values="0 0 0 0 0.94902 0 0 0 0 0.721569 0 0 0 0 0.92549 0 0 0 0.0274815 0"/>
<feBlend mode="normal" in2="effect1_dropShadow_237_4554" result="effect2_dropShadow_237_4554"/>
<feColorMatrix in="SourceAlpha" type="matrix" values="0 0 0 0 0 0 0 0 0 0 0 0 0 0 0 0 0 0 127 0" result="hardAlpha"/>
<feOffset dy="20"/>
<feGaussianBlur stdDeviation="6.5"/>
<feColorMatrix type="matrix" values="0 0 0 0 0.94902 0 0 0 0 0.721569 0 0 0 0 0.92549 0 0 0 0.035 0"/>
<feBlend mode="normal" in2="effect2_dropShadow_237_4554" result="effect3_dropShadow_237_4554"/>
<feColorMatrix in="SourceAlpha" type="matrix" values="0 0 0 0 0 0 0 0 0 0 0 0 0 0 0 0 0 0 127 0" result="hardAlpha"/>
<feOffset dy="38.5185"/>
<feGaussianBlur stdDeviation="12.7407"/>
<feColorMatrix type="matrix" values="0 0 0 0 0.94902 0 0 0 0 0.721569 0 0 0 0 0.92549 0 0 0 0.0425185 0"/>
<feBlend mode="normal" in2="effect3_dropShadow_237_4554" result="effect4_dropShadow_237_4554"/>
<feColorMatrix in="SourceAlpha" type="matrix" values="0 0 0 0 0 0 0 0 0 0 0 0 0 0 0 0 0 0 127 0" result="hardAlpha"/>
<feOffset dy="64.8148"/>
<feGaussianBlur stdDeviation="23.4259"/>
<feColorMatrix type="matrix" values="0 0 0 0 0.94902 0 0 0 0 0.721569 0 0 0 0 0.92549 0 0 0 0.0531481 0"/>
<feBlend mode="normal" in2="effect4_dropShadow_237_4554" result="effect5_dropShadow_237_4554"/>
<feColorMatrix in="SourceAlpha" type="matrix" values="0 0 0 0 0 0 0 0 0 0 0 0 0 0 0 0 0 0 127 0" result="hardAlpha"/>
<feOffset dy="100"/>
<feGaussianBlur stdDeviation="40"/>
<feColorMatrix type="matrix" values="0 0 0 0 0.94902 0 0 0 0 0.721569 0 0 0 0 0.92549 0 0 0 0.07 0"/>
<feBlend mode="normal" in2="effect5_dropShadow_237_4554" result="effect6_dropShadow_237_4554"/>
<feBlend mode="normal" in="SourceGraphic" in2="effect6_dropShadow_237_4554" result="shape"/>
</filter>
</defs>
</svg>
