<svg width="32" height="38" viewBox="0 0 32 38" fill="none" xmlns="http://www.w3.org/2000/svg">
<path d="M25.1103 38V7.5908H0V38H5.84884V36.1959C5.84884 33.9275 7.63225 32.0785 9.79185 32.0785H15.318C17.4804 32.0785 19.276 33.9275 19.276 36.1959V38H25.1103ZM6.93333 27.1287C6.93333 27.29 6.90425 27.4578 6.84561 27.6068C6.78698 27.7559 6.70489 27.8935 6.59654 28.008C6.48818 28.122 6.35731 28.2084 6.21518 28.27C6.07352 28.3317 5.91451 28.3623 5.76065 28.3623H2.99032C2.83694 28.3623 2.67792 28.3317 2.53579 28.27C2.39414 28.2084 2.26326 28.122 2.15491 28.008C2.04608 27.894 1.96447 27.7564 1.90583 27.6068C1.8472 27.4578 1.81765 27.2905 1.81765 27.1287V24.2449C1.81765 24.0836 1.84673 23.9163 1.90583 23.7668C1.96447 23.6177 2.04655 23.4801 2.15491 23.3656C2.26326 23.2516 2.39414 23.1652 2.53579 23.1036C2.67792 23.0419 2.83694 23.0108 2.99032 23.0108H5.76065C5.91404 23.0108 6.07305 23.0414 6.21518 23.1036C6.35684 23.1652 6.48771 23.2516 6.59654 23.3656C6.70489 23.4801 6.78698 23.6173 6.84561 23.7668C6.90425 23.9158 6.93333 24.0831 6.93333 24.2449V27.1287ZM6.93333 18.6008C6.93333 18.7621 6.90425 18.9294 6.84561 19.0789C6.78698 19.228 6.70489 19.3656 6.59654 19.4796C6.48818 19.5941 6.35731 19.68 6.21518 19.7416C6.07352 19.8033 5.91451 19.8344 5.76065 19.8344H2.99032C2.83694 19.8344 2.67792 19.8038 2.53579 19.7416C2.39414 19.68 2.26326 19.5936 2.15491 19.4796C2.04608 19.3656 1.96447 19.228 1.90583 19.0789C1.8472 18.9299 1.81765 18.7621 1.81765 18.6008V15.7017C1.81765 15.5404 1.84673 15.3884 1.90583 15.2389C1.96447 15.0898 2.04655 14.9522 2.15491 14.8377C2.26326 14.7237 2.39414 14.622 2.53579 14.5599C2.67792 14.4982 2.83694 14.4671 2.99032 14.4671H5.76065C5.91404 14.4671 6.07305 14.4977 6.21518 14.5599C6.35684 14.6216 6.48771 14.7232 6.59654 14.8377C6.70489 14.9517 6.78698 15.0893 6.84561 15.2389C6.90425 15.3879 6.93333 15.5399 6.93333 15.7017V18.6008ZM9.9973 15.5631C9.9973 15.4017 10.0264 15.2344 10.0855 15.0849C10.1441 14.9359 10.2262 14.7982 10.3346 14.6837C10.4434 14.5697 10.5738 14.4834 10.7159 14.4217C10.8576 14.36 11.0171 14.3294 11.1704 14.3294H13.6476C13.801 14.3294 13.96 14.36 14.1021 14.4217C14.2438 14.4834 14.3747 14.5697 14.4835 14.6837C14.5918 14.7977 14.6739 14.9354 14.7326 15.0849C14.7912 15.2339 14.8208 15.4012 14.8208 15.5631V18.1537C14.8208 18.3151 14.7917 18.4671 14.7326 18.6161C14.6739 18.7651 14.5918 18.9028 14.4835 19.0173C14.3751 19.1312 14.2443 19.2329 14.1021 19.2946C13.9605 19.3563 13.801 19.3873 13.6476 19.3873H11.1704C11.0171 19.3873 10.8576 19.3568 10.7159 19.2946C10.5743 19.2329 10.4434 19.1312 10.3346 19.0173C10.2262 18.9033 10.1441 18.7656 10.0855 18.6161C10.0268 18.4671 9.9973 18.3151 9.9973 18.1537V15.5631ZM14.893 26.7586C14.893 26.9199 14.8639 27.0719 14.8048 27.2214C14.7462 27.3705 14.6641 27.5081 14.5557 27.6221C14.4474 27.7366 14.3165 27.8378 14.1748 27.9C14.0327 27.9616 13.8737 27.9922 13.7203 27.9922H11.1695C11.0161 27.9922 10.8566 27.9616 10.715 27.9C10.5733 27.8383 10.4424 27.7366 10.3336 27.6221C10.2253 27.5081 10.1432 27.3705 10.0845 27.2214C10.0259 27.0724 9.99636 26.9204 9.99636 26.7586V24.091C9.99636 23.9296 10.0254 23.7623 10.0845 23.6128C10.1432 23.4638 10.2253 23.3261 10.3336 23.2121C10.4424 23.0981 10.5728 23.0118 10.715 22.9501C10.8566 22.8884 11.0161 22.8573 11.1695 22.8573H13.7203C13.8737 22.8573 14.0327 22.8879 14.1748 22.9501C14.3165 23.0118 14.4474 23.0981 14.5557 23.2121C14.6645 23.3261 14.7462 23.4638 14.8048 23.6128C14.8634 23.7623 14.893 23.9296 14.893 24.091V26.7586ZM18.1765 15.7017C18.1765 15.5404 18.2056 15.3884 18.2647 15.2389C18.3233 15.0898 18.4054 14.9522 18.5137 14.8377C18.6221 14.7237 18.753 14.622 18.8946 14.5599C19.0368 14.4982 19.1958 14.4671 19.3492 14.4671H22.1195C22.2729 14.4671 22.4319 14.4977 22.574 14.5599C22.7157 14.6216 22.8465 14.7232 22.9554 14.8377C23.0637 14.9517 23.1458 15.0893 23.2044 15.2389C23.2631 15.3879 23.2922 15.5399 23.2922 15.7017V18.6008C23.2922 18.7621 23.2631 18.9294 23.2044 19.0789C23.1458 19.228 23.0637 19.3656 22.9554 19.4796C22.847 19.5941 22.7161 19.68 22.574 19.7416C22.4324 19.8033 22.2729 19.8344 22.1195 19.8344H19.3492C19.1958 19.8344 19.0368 19.8038 18.8946 19.7416C18.753 19.68 18.6221 19.5936 18.5137 19.4796C18.4049 19.3656 18.3233 19.228 18.2647 19.0789C18.206 18.9299 18.1765 18.7621 18.1765 18.6008V15.7017ZM18.8951 28.2695C18.7534 28.2079 18.6226 28.1215 18.5142 28.0075C18.4054 27.8935 18.3238 27.7559 18.2651 27.6063C18.2065 27.4573 18.1769 27.29 18.1769 27.1282V24.2449C18.1769 24.0836 18.206 23.9163 18.2651 23.7668C18.3238 23.6177 18.4059 23.4801 18.5142 23.3656C18.6226 23.2516 18.7534 23.1652 18.8951 23.1036C19.0372 23.0419 19.1962 23.0108 19.3496 23.0108H22.12C22.2733 23.0108 22.4324 23.0414 22.5745 23.1036C22.7161 23.1652 22.847 23.2516 22.9558 23.3656C23.0642 23.4801 23.1463 23.6173 23.2049 23.7668C23.2635 23.9158 23.2926 24.0831 23.2926 24.2449V27.1287C23.2926 27.29 23.2635 27.4578 23.2049 27.6068C23.1463 27.7559 23.0642 27.8935 22.9558 28.008C22.8475 28.122 22.7166 28.2084 22.5745 28.27C22.4328 28.3317 22.2733 28.3623 22.12 28.3623H19.3492C19.1958 28.3623 19.0368 28.3312 18.8951 28.2695Z" fill="white"/>
<path d="M30.4042 0H6.21939L1.56903 5.12207H25.7374L30.4042 0Z" fill="white"/>
<path d="M27.4547 36.1525L32 31.1459V1.81444L27.4547 6.80327V36.1525Z" fill="white"/>
<path d="M9.78948 34.5404C8.90012 34.5404 8.18995 35.289 8.18995 36.1984V37.9961H16.924V36.1984C16.924 35.289 16.2157 34.5404 15.3198 34.5404H9.78948Z" fill="white"/>
</svg>
