<svg width="35" height="28" viewBox="0 0 35 28" fill="none" xmlns="http://www.w3.org/2000/svg">
<path d="M2.28594 18.2733C2.23615 18.302 2.19251 18.3402 2.15751 18.3858C2.1225 18.4314 2.09683 18.4834 2.08195 18.5389C2.06707 18.5945 2.06327 18.6524 2.07078 18.7093C2.07829 18.7663 2.09695 18.8213 2.1257 18.871L2.5632 19.629C2.59191 19.6788 2.63015 19.7224 2.67573 19.7574C2.72132 19.7924 2.77335 19.8181 2.82886 19.833C2.88438 19.8479 2.94228 19.8517 2.99925 19.8441C3.05623 19.8366 3.11118 19.818 3.16094 19.7892L8.58703 16.6567C8.22062 16.1935 7.88812 15.7112 7.60211 15.2048L2.28594 18.2733ZM6.14305 9.625H0.4375C0.195781 9.625 0 9.82078 0 10.0625V10.9375C0 11.1792 0.195781 11.375 0.4375 11.375H6.26281C6.17367 10.7997 6.14414 10.214 6.14305 9.625ZM2.28594 2.72617L6.94312 5.41516C7.16023 4.86773 7.42 4.34438 7.71805 3.8418L3.16094 1.21078C3.11118 1.18203 3.05623 1.16337 2.99925 1.15586C2.94228 1.14835 2.88438 1.15214 2.82886 1.16703C2.77335 1.18191 2.72132 1.20758 2.67573 1.24258C2.63015 1.27759 2.59191 1.32123 2.5632 1.37102L2.1257 2.12898C2.00484 2.33789 2.07648 2.60531 2.28594 2.72617ZM32.7141 2.72617C32.7639 2.69746 32.8075 2.65923 32.8425 2.61364C32.8775 2.56806 32.9032 2.51602 32.9181 2.46051C32.9329 2.405 32.9367 2.3471 32.9292 2.29012C32.9217 2.23314 32.903 2.1782 32.8743 2.12844L32.4368 1.37047C32.4081 1.32068 32.3699 1.27704 32.3243 1.24204C32.2787 1.20704 32.2267 1.18136 32.1711 1.16648C32.1156 1.1516 32.0577 1.1478 32.0007 1.15531C31.9438 1.16282 31.8888 1.18148 31.8391 1.21023L27.2792 3.84289C27.5767 4.34437 27.8392 4.86719 28.058 5.41406L32.7141 2.72617ZM34.5625 9.625H28.875C28.875 10.2156 28.8066 10.798 28.7164 11.375H34.5625C34.8042 11.375 35 11.1792 35 10.9375V10.0625C35 9.82078 34.8042 9.625 34.5625 9.625ZM32.7141 18.2733L27.388 15.1982C27.1009 15.7068 26.7619 16.1842 26.3966 16.6463L31.8391 19.7887C32.0485 19.9095 32.3159 19.8379 32.4368 19.6284L32.8743 18.8705C32.9952 18.6616 32.9235 18.3941 32.7141 18.2733ZM17.5 3.5C14.123 3.5 11.375 6.24805 11.375 9.625C11.375 10.1084 11.7666 10.5 12.25 10.5C12.7334 10.5 13.125 10.1084 13.125 9.625C13.125 7.21273 15.0872 5.25 17.5 5.25C17.9834 5.25 18.375 4.85844 18.375 4.375C18.375 3.89102 17.9834 3.5 17.5 3.5ZM17.5 0C11.8699 0 7.86844 4.56859 7.875 9.63813C7.87828 12.0597 8.77734 14.2685 10.2572 15.9567C11.6599 17.5569 13.0074 20.1627 13.125 21L13.1283 25.1114C13.1283 25.2837 13.1797 25.4516 13.2748 25.5948L14.6152 27.6095C14.7777 27.8534 15.0511 28 15.3437 28H19.6558C19.9489 28 20.2223 27.8534 20.3842 27.6095L21.7246 25.5948C21.8198 25.4516 21.8706 25.2831 21.8712 25.1114L21.875 21C21.9986 20.1403 23.351 17.5443 24.7428 15.9567C26.2254 14.2652 27.125 12.0515 27.125 9.625C27.125 4.30938 22.8156 0 17.5 0ZM20.1217 24.8451L19.1871 26.25H15.8123L14.8777 24.8451L14.8772 24.5H20.1217V24.8451ZM20.1239 22.75H14.8755L14.8717 21H20.1261L20.1239 22.75ZM23.427 14.8028C22.662 15.6756 21.4402 17.4333 20.6609 19.2495H14.3396C13.5598 17.4327 12.3386 15.6756 11.5735 14.8028C10.3086 13.3602 9.63211 11.5303 9.62773 9.625C9.61789 5.41461 12.9298 1.75 17.5 1.75C21.8422 1.75 25.375 5.28281 25.375 9.625C25.375 11.5309 24.6832 13.37 23.427 14.8028Z" fill="#4443E4"/>
</svg>
