<svg width="25" height="25" viewBox="0 0 25 25" fill="none" xmlns="http://www.w3.org/2000/svg">
<path d="M15.875 2.08333H11.8188C9.98125 2.08333 8.525 2.08333 7.38646 2.23749C6.21354 2.39583 5.26458 2.72916 4.51667 3.4802C3.76771 4.23125 3.43542 5.18437 3.27813 6.36145C3.125 7.5052 3.125 8.96666 3.125 10.8115V16.8927C3.125 18.4635 4.08333 19.8094 5.44479 20.374C5.375 19.426 5.375 18.0979 5.375 16.9917V11.7729C5.375 10.4385 5.375 9.28749 5.49792 8.36666C5.63021 7.37916 5.92813 6.43333 6.69271 5.66562C7.45729 4.89791 8.4 4.59895 9.38333 4.46562C10.3 4.3427 11.4458 4.3427 12.776 4.3427H15.974C17.3031 4.3427 18.4469 4.3427 19.3646 4.46562C19.0897 3.76384 18.6097 3.16118 17.9872 2.73623C17.3648 2.31127 16.6287 2.08375 15.875 2.08333Z" fill="#2F3542"/>
<path d="M6.875 11.8719C6.875 9.03229 6.875 7.6125 7.75417 6.73021C8.63229 5.84792 10.0458 5.84792 12.875 5.84792H15.875C18.7031 5.84792 20.1177 5.84792 20.9969 6.73021C21.876 7.6125 21.875 9.03229 21.875 11.8719V16.8927C21.875 19.7323 21.875 21.1521 20.9969 22.0344C20.1177 22.9167 18.7031 22.9167 15.875 22.9167H12.875C10.0469 22.9167 8.63229 22.9167 7.75417 22.0344C6.875 21.1521 6.875 19.7323 6.875 16.8927V11.8719Z" fill="#2F3542"/>
</svg>
