<svg width="13" height="13" viewBox="0 0 13 13" fill="none" xmlns="http://www.w3.org/2000/svg">
<path d="M12.8004 6.39913C12.7999 2.99465 10.1342 0.186461 6.73433 0.00885245C3.33448 -0.168756 0.390653 2.34639 0.0353872 5.73228C-0.319878 9.11817 2.03778 12.1896 5.40045 12.7215L5.40045 8.24913H3.77565L3.77565 6.39913L5.40045 6.39913L5.40045 4.98913C5.40045 3.38513 6.35605 2.49913 7.81765 2.49913C8.29765 2.50579 8.77652 2.5475 9.25045 2.62393V4.19913H8.44325C8.16461 4.16212 7.88427 4.25385 7.6814 4.44839C7.47853 4.64294 7.37514 4.91919 7.40045 5.19913L7.40045 6.39913L9.17565 6.39913L8.89165 8.24913H7.40045L7.40045 12.7215C10.5107 12.2295 12.8009 9.54808 12.8004 6.39913Z" fill="#171A1F"/>
</svg>
