<svg width="40" height="40" viewBox="0 0 40 40" fill="none" xmlns="http://www.w3.org/2000/svg">
<circle cx="20" cy="20" r="20" fill="#1BC469" fill-opacity="0.1"/>
<g clip-path="url(#clip0_166_523)">
<path d="M20 23C21.6569 23 23 21.6569 23 20V15C23 13.3431 21.6569 12 20 12C18.3431 12 17 13.3431 17 15V20C17 21.6569 18.3431 23 20 23ZM18 15C18 13.8972 18.8972 13 20 13C21.1028 13 22 13.8972 22 15V20C22 21.1028 21.1028 22 20 22C18.8972 22 18 21.1028 18 20V15ZM24.75 18H24.25C24.1119 18 24 18.1119 24 18.25V20C24 22.2956 22.0563 24.1462 19.7272 23.9909C17.6031 23.8494 16 21.9878 16 19.8591V18.25C16 18.1119 15.8881 18 15.75 18H15.25C15.1119 18 15 18.1119 15 18.25V19.8231C15 22.4291 16.9266 24.7019 19.5 24.9616V27H17.25C17.1119 27 17 27.1119 17 27.25V27.75C17 27.8881 17.1119 28 17.25 28H22.75C22.8881 28 23 27.8881 23 27.75V27.25C23 27.1119 22.8881 27 22.75 27H20.5V24.9684C23.0222 24.7156 25 22.5875 25 20V18.25C25 18.1119 24.8881 18 24.75 18Z" fill="#1BC469"/>
</g>
<defs>
<clipPath id="clip0_166_523">
<rect width="10" height="16" fill="white" transform="translate(15 12)"/>
</clipPath>
</defs>
</svg>
