<svg width="250" height="272" viewBox="0 0 250 272" fill="none" xmlns="http://www.w3.org/2000/svg">
<g filter="url(#filter0_dddddd_237_4560)">
<rect x="80" y="1.29639" width="90" height="90" rx="20" fill="#4443E4"/>
</g>
<path d="M115.822 62.9444L113.453 65.2964L105 57.1183L111.056 51.1489C112.283 49.9311 113.831 49.0815 115.522 48.6979C117.213 48.3142 118.979 48.412 120.616 48.9801L121.947 49.4417H130.112C130.457 49.4415 130.799 49.5103 131.117 49.6438C131.435 49.7773 131.723 49.973 131.963 50.2191C132.203 50.4652 132.392 50.7568 132.516 51.0765C132.641 51.3962 132.7 51.7375 132.689 52.0802C132.65 52.7575 132.348 53.3936 131.848 53.8556C131.348 54.3176 130.687 54.5698 130.003 54.5594H125.105C124.84 54.5594 124.585 54.6643 124.397 54.8508C124.209 55.0374 124.103 55.2905 124.103 55.5543C124.103 55.8182 124.209 56.0713 124.397 56.2578C124.585 56.4444 124.84 56.5492 125.105 56.5492H130.019C131.218 56.5551 132.373 56.103 133.245 55.2866C134.118 54.4703 134.64 53.3521 134.705 52.1637C134.705 52.1438 134.705 52.1239 134.705 52.1001L139.25 47.0181C139.712 46.4862 140.363 46.1513 141.066 46.0831C141.77 46.0149 142.474 46.2187 143.03 46.652C143.306 46.8784 143.533 47.1573 143.698 47.4723C143.863 47.7872 143.963 48.1317 143.991 48.4856C144.02 48.8395 143.977 49.1955 143.865 49.5326C143.753 49.8697 143.574 50.1812 143.339 50.4485L134.264 60.7955C133.665 61.4771 132.926 62.0231 132.096 62.3966C131.266 62.77 130.365 62.9623 129.454 62.9604L115.822 62.9444ZM134.561 40.4478C134.561 39.9465 134.36 39.4657 134.003 39.1112C133.646 38.7567 133.162 38.5575 132.657 38.5575H129.851V35.7718C129.829 35.286 129.618 34.8274 129.264 34.4915C128.91 34.1556 128.439 33.9682 127.949 33.9682C127.459 33.9682 126.988 34.1556 126.634 34.4915C126.28 34.8274 126.07 35.286 126.047 35.7718V38.5575H123.242C122.984 38.5458 122.728 38.5859 122.487 38.6756C122.246 38.7652 122.025 38.9024 121.839 39.0789C121.653 39.2554 121.505 39.4675 121.404 39.7024C121.302 39.9374 121.25 40.1903 121.25 40.4458C121.25 40.7014 121.302 40.9543 121.404 41.1892C121.505 41.4242 121.653 41.6363 121.839 41.8128C122.025 41.9893 122.246 42.1265 122.487 42.2161C122.728 42.3057 122.984 42.3459 123.242 42.3341H126.047V45.1199C126.07 45.6057 126.28 46.0642 126.634 46.4001C126.988 46.736 127.459 46.9235 127.949 46.9235C128.439 46.9235 128.91 46.736 129.264 46.4001C129.618 46.0642 129.829 45.6057 129.851 45.1199V42.3341H132.657C133.161 42.3341 133.645 42.1355 134.002 41.7819C134.359 41.4283 134.56 40.9485 134.561 40.4478ZM116.307 29.9735V32.027H114.243C113.871 32.027 113.514 32.1737 113.251 32.435C112.988 32.6962 112.84 33.0504 112.84 33.4199C112.84 33.7893 112.988 34.1435 113.251 34.4048C113.514 34.666 113.871 34.8127 114.243 34.8127H116.311V36.8662C116.311 37.2356 116.459 37.5899 116.722 37.8511C116.985 38.1123 117.342 38.259 117.714 38.259C118.086 38.259 118.443 38.1123 118.706 37.8511C118.969 37.5899 119.117 37.2356 119.117 36.8662V34.8048H121.173C121.545 34.8048 121.902 34.658 122.165 34.3968C122.428 34.1356 122.576 33.7813 122.576 33.4119C122.576 33.0425 122.428 32.6882 122.165 32.427C121.902 32.1658 121.545 32.019 121.173 32.019H119.105V29.9735C119.105 29.6041 118.957 29.2498 118.694 28.9886C118.431 28.7274 118.074 28.5807 117.702 28.5807C117.33 28.5807 116.973 28.7274 116.71 28.9886C116.447 29.2498 116.299 29.6041 116.299 29.9735H116.307ZM134.004 26.2964C133.685 26.2964 133.379 26.4222 133.153 26.6461C132.928 26.87 132.801 27.1736 132.801 27.4903V29.2572H131.022C130.703 29.2572 130.397 29.383 130.171 29.6069C129.946 29.8308 129.819 30.1344 129.819 30.4511C129.819 30.7677 129.946 31.0714 130.171 31.2953C130.397 31.5192 130.703 31.645 131.022 31.645H132.801V33.4119C132.801 33.7285 132.928 34.0322 133.153 34.2561C133.379 34.48 133.685 34.6058 134.004 34.6058C134.323 34.6058 134.628 34.48 134.854 34.2561C135.079 34.0322 135.206 33.7285 135.206 33.4119V31.645H136.986C137.144 31.645 137.3 31.6141 137.446 31.5541C137.592 31.4941 137.724 31.4061 137.836 31.2953C137.948 31.1844 138.036 31.0528 138.097 30.908C138.157 30.7631 138.188 30.6079 138.188 30.4511C138.188 30.2943 138.157 30.1391 138.097 29.9942C138.036 29.8494 137.948 29.7177 137.836 29.6069C137.724 29.496 137.592 29.4081 137.446 29.3481C137.3 29.2881 137.144 29.2572 136.986 29.2572H135.206V27.4903C135.206 27.1736 135.079 26.87 134.854 26.6461C134.628 26.4222 134.323 26.2964 134.004 26.2964Z" fill="white"/>
<defs>
<filter id="filter0_dddddd_237_4560" x="0" y="9.04799e-05" width="250" height="271.296" filterUnits="userSpaceOnUse" color-interpolation-filters="sRGB">
<feFlood flood-opacity="0" result="BackgroundImageFix"/>
<feColorMatrix in="SourceAlpha" type="matrix" values="0 0 0 0 0 0 0 0 0 0 0 0 0 0 0 0 0 0 127 0" result="hardAlpha"/>
<feOffset dy="1.85185"/>
<feGaussianBlur stdDeviation="1.57407"/>
<feColorMatrix type="matrix" values="0 0 0 0 0.301961 0 0 0 0 0.87451 0 0 0 0 0.992157 0 0 0 0.0168519 0"/>
<feBlend mode="normal" in2="BackgroundImageFix" result="effect1_dropShadow_237_4560"/>
<feColorMatrix in="SourceAlpha" type="matrix" values="0 0 0 0 0 0 0 0 0 0 0 0 0 0 0 0 0 0 127 0" result="hardAlpha"/>
<feOffset dy="8.14815"/>
<feGaussianBlur stdDeviation="3.25926"/>
<feColorMatrix type="matrix" values="0 0 0 0 0.301961 0 0 0 0 0.87451 0 0 0 0 0.992157 0 0 0 0.0274815 0"/>
<feBlend mode="normal" in2="effect1_dropShadow_237_4560" result="effect2_dropShadow_237_4560"/>
<feColorMatrix in="SourceAlpha" type="matrix" values="0 0 0 0 0 0 0 0 0 0 0 0 0 0 0 0 0 0 127 0" result="hardAlpha"/>
<feOffset dy="20"/>
<feGaussianBlur stdDeviation="6.5"/>
<feColorMatrix type="matrix" values="0 0 0 0 0.301961 0 0 0 0 0.87451 0 0 0 0 0.992157 0 0 0 0.035 0"/>
<feBlend mode="normal" in2="effect2_dropShadow_237_4560" result="effect3_dropShadow_237_4560"/>
<feColorMatrix in="SourceAlpha" type="matrix" values="0 0 0 0 0 0 0 0 0 0 0 0 0 0 0 0 0 0 127 0" result="hardAlpha"/>
<feOffset dy="38.5185"/>
<feGaussianBlur stdDeviation="12.7407"/>
<feColorMatrix type="matrix" values="0 0 0 0 0.301961 0 0 0 0 0.87451 0 0 0 0 0.992157 0 0 0 0.0425185 0"/>
<feBlend mode="normal" in2="effect3_dropShadow_237_4560" result="effect4_dropShadow_237_4560"/>
<feColorMatrix in="SourceAlpha" type="matrix" values="0 0 0 0 0 0 0 0 0 0 0 0 0 0 0 0 0 0 127 0" result="hardAlpha"/>
<feOffset dy="64.8148"/>
<feGaussianBlur stdDeviation="23.4259"/>
<feColorMatrix type="matrix" values="0 0 0 0 0.301961 0 0 0 0 0.87451 0 0 0 0 0.992157 0 0 0 0.0531481 0"/>
<feBlend mode="normal" in2="effect4_dropShadow_237_4560" result="effect5_dropShadow_237_4560"/>
<feColorMatrix in="SourceAlpha" type="matrix" values="0 0 0 0 0 0 0 0 0 0 0 0 0 0 0 0 0 0 127 0" result="hardAlpha"/>
<feOffset dy="100"/>
<feGaussianBlur stdDeviation="40"/>
<feColorMatrix type="matrix" values="0 0 0 0 0.301961 0 0 0 0 0.87451 0 0 0 0 0.992157 0 0 0 0.07 0"/>
<feBlend mode="normal" in2="effect5_dropShadow_237_4560" result="effect6_dropShadow_237_4560"/>
<feBlend mode="normal" in="SourceGraphic" in2="effect6_dropShadow_237_4560" result="shape"/>
</filter>
</defs>
</svg>
