<svg width="39" height="39" viewBox="0 0 39 39" fill="none" xmlns="http://www.w3.org/2000/svg">
<path d="M10.8223 36.6481L8.45338 39L0 30.8219L6.05645 24.8526C7.28299 23.6347 8.8307 22.7851 10.5217 22.4015C12.2128 22.0178 13.9785 22.1156 15.6161 22.6837L16.9468 23.1453H25.1116C25.4569 23.1451 25.7988 23.2139 26.1168 23.3474C26.4348 23.481 26.7226 23.6766 26.963 23.9227C27.2034 24.1688 27.3915 24.4604 27.5163 24.7801C27.641 25.0998 27.6997 25.4411 27.6889 25.7838C27.6497 26.4611 27.3484 27.0972 26.848 27.5592C26.3476 28.0213 25.6867 28.2734 25.0034 28.2631H20.1053C19.8396 28.2631 19.5847 28.3679 19.3968 28.5545C19.2089 28.741 19.1033 28.9941 19.1033 29.258C19.1033 29.5218 19.2089 29.7749 19.3968 29.9615C19.5847 30.148 19.8396 30.2529 20.1053 30.2529H25.0195C26.2181 30.2587 27.3732 29.8066 28.2454 28.9902C29.1176 28.1739 29.6403 27.0557 29.7051 25.8673C29.7051 25.8474 29.7051 25.8275 29.7051 25.8037L34.2504 20.7217C34.7121 20.1898 35.3625 19.8549 36.0664 19.7867C36.7704 19.7185 37.4737 19.9223 38.0302 20.3556C38.3056 20.582 38.5325 20.8609 38.6976 21.1759C38.8627 21.4908 38.9626 21.8354 38.9913 22.1892C39.0201 22.5431 38.9772 22.8991 38.8651 23.2362C38.753 23.5734 38.5741 23.8848 38.3388 24.1521L29.2642 34.4991C28.6652 35.1807 27.9258 35.7267 27.096 36.1002C26.2662 36.4737 25.3654 36.6659 24.4543 36.664L10.8223 36.6481ZM29.5608 14.1514C29.5608 13.6501 29.3602 13.1693 29.0031 12.8148C28.6461 12.4603 28.1618 12.2611 27.6569 12.2611H24.8511V9.47541C24.8286 8.98959 24.6184 8.53106 24.2642 8.19516C23.91 7.85925 23.439 7.67181 22.9492 7.67181C22.4594 7.67181 21.9884 7.85925 21.6342 8.19516C21.2799 8.53106 21.0698 8.98959 21.0473 9.47541V12.2611H18.2415C17.9844 12.2494 17.7276 12.2896 17.4865 12.3792C17.2455 12.4688 17.0253 12.606 16.8391 12.7825C16.653 12.959 16.5049 13.1711 16.4037 13.4061C16.3024 13.641 16.2503 13.8939 16.2503 14.1494C16.2503 14.405 16.3024 14.6579 16.4037 14.8928C16.5049 15.1278 16.653 15.3399 16.8391 15.5164C17.0253 15.6929 17.2455 15.8301 17.4865 15.9197C17.7276 16.0093 17.9844 16.0495 18.2415 16.0378H21.0473V18.8235C21.0698 19.3093 21.2799 19.7678 21.6342 20.1037C21.9884 20.4396 22.4594 20.6271 22.9492 20.6271C23.439 20.6271 23.91 20.4396 24.2642 20.1037C24.6184 19.7678 24.8286 19.3093 24.8511 18.8235V16.0378H27.6569C28.1611 16.0378 28.6448 15.8391 29.0017 15.4855C29.3587 15.1319 29.5597 14.6521 29.5608 14.1514ZM11.3073 3.67714V5.73061H9.24301C8.87094 5.73061 8.51411 5.87736 8.25102 6.13857C7.98793 6.39978 7.84012 6.75406 7.84012 7.12347C7.84012 7.49288 7.98793 7.84716 8.25102 8.10837C8.51411 8.36958 8.87094 8.51633 9.24301 8.51633H11.3113V10.5698C11.3113 10.9392 11.4591 11.2935 11.7222 11.5547C11.9852 11.8159 12.3421 11.9627 12.7141 11.9627C13.0862 11.9627 13.443 11.8159 13.7061 11.5547C13.9692 11.2935 14.117 10.9392 14.117 10.5698V8.50837H16.1733C16.5453 8.50837 16.9022 8.36162 17.1652 8.10041C17.4283 7.8392 17.5761 7.48492 17.5761 7.11551C17.5761 6.7461 17.4283 6.39182 17.1652 6.13061C16.9022 5.8694 16.5453 5.72265 16.1733 5.72265H14.105V3.67714C14.105 3.30773 13.9572 2.95346 13.6941 2.69224C13.431 2.43103 13.0742 2.28429 12.7021 2.28429C12.3301 2.28429 11.9732 2.43103 11.7101 2.69224C11.447 2.95346 11.2992 3.30773 11.2992 3.67714H11.3073ZM29.0036 0C28.6847 0 28.3789 0.125783 28.1534 0.349679C27.9279 0.573574 27.8012 0.877241 27.8012 1.19388V2.96082H26.0215C25.7026 2.96082 25.3967 3.0866 25.1712 3.31049C24.9457 3.53439 24.819 3.83806 24.819 4.15469C24.819 4.47133 24.9457 4.775 25.1712 4.99889C25.3967 5.22279 25.7026 5.34857 26.0215 5.34857H27.8012V7.11551C27.8012 7.43215 27.9279 7.73581 28.1534 7.95971C28.3789 8.1836 28.6847 8.30939 29.0036 8.30939C29.3226 8.30939 29.6284 8.1836 29.8539 7.95971C30.0794 7.73581 30.2061 7.43215 30.2061 7.11551V5.34857H31.9858C32.1437 5.34857 32.3001 5.31769 32.4459 5.25769C32.5918 5.19769 32.7244 5.10975 32.8361 4.99889C32.9477 4.88803 33.0363 4.75642 33.0967 4.61157C33.1571 4.46672 33.1882 4.31148 33.1882 4.15469C33.1882 3.99791 33.1571 3.84266 33.0967 3.69782C33.0363 3.55297 32.9477 3.42136 32.8361 3.31049C32.7244 3.19963 32.5918 3.11169 32.4459 3.05169C32.3001 2.9917 32.1437 2.96082 31.9858 2.96082H30.2061V1.19388C30.2061 0.877241 30.0794 0.573574 29.8539 0.349679C29.6284 0.125783 29.3226 0 29.0036 0Z" fill="white"/>
</svg>
