<svg width="120" height="48" viewBox="0 0 120 48" fill="none" xmlns="http://www.w3.org/2000/svg">
<path d="M3.0991 35.9701C2.50647 35.74 1.96522 35.395 1.50653 34.9548C1.0397 34.5256 0.66315 34.0076 0.398875 33.4311C0.132048 32.8499 -0.00407449 32.2172 0.000111893 31.5777V22.9822C-0.00729336 21.2425 0.352948 19.5209 1.05728 17.9301C1.75907 16.3421 2.75076 14.8988 3.98151 13.6742C5.22263 12.4679 6.68087 11.5074 8.27923 10.8435C9.89235 10.1682 11.6245 9.82293 13.3732 9.82818C15.7767 9.82473 18.1407 10.4392 20.2383 11.6127C22.3165 12.7447 24.088 14.3655 25.4 16.3351C26.7245 18.2878 27.4324 20.5931 27.4319 22.9527V31.5752C27.4363 32.2105 27.315 32.8404 27.075 33.4287C26.8403 33.9987 26.495 34.5166 26.059 34.9524C25.6229 35.3882 25.1049 35.7333 24.5347 35.9677C23.9467 36.2085 23.3166 36.3298 22.6812 36.3246C22.024 36.3289 21.3719 36.2077 20.7601 35.9677C20.1734 35.7417 19.6402 35.3959 19.1946 34.9523C18.7401 34.5175 18.3722 34.0005 18.1103 33.4287C17.8435 32.8474 17.7074 32.2148 17.7116 31.5752V23.1521C17.7097 22.6742 17.5769 22.206 17.3276 21.7983C17.0542 21.349 16.7009 20.9536 16.2851 20.6315C15.8571 20.3179 15.3852 20.0691 14.8846 19.8931C14.4008 19.7154 13.8899 19.6225 13.3745 19.6187C12.9146 19.6152 12.4581 19.6987 12.0293 19.8648C11.6159 20.0247 11.2345 20.2573 10.9031 20.5515C10.5612 20.8269 10.2834 21.1735 10.0889 21.5671C9.89446 21.9607 9.78803 22.392 9.77704 22.8309V31.59C9.78124 32.2253 9.65994 32.8552 9.42012 33.4435C9.18491 34.0132 8.83938 34.5308 8.40344 34.9665C7.96749 35.4023 7.44973 35.7475 6.8799 35.9825C6.29185 36.2232 5.66178 36.3445 5.0264 36.3394C4.36628 36.3405 3.71207 36.2152 3.0991 35.9701Z" fill="#4443E4"/>
<path d="M38.0277 35.5576C34.7966 34.1792 32.2172 31.6143 30.8205 28.3911C30.1229 26.7665 29.7632 25.017 29.7632 23.2491C29.7632 21.4811 30.1229 19.7316 30.8205 18.1071C31.5093 16.4919 32.502 15.0241 33.7447 13.7835C34.967 12.541 36.4224 11.5519 38.0277 10.8728C39.6501 10.1783 41.3975 9.82318 43.1623 9.82918C44.9252 9.82692 46.6709 10.1754 48.2978 10.8543C49.9248 11.5331 51.4005 12.5289 52.6389 13.7835C53.8653 15.0286 54.8439 16.4954 55.5225 18.1058C56.2113 19.7326 56.5662 21.4812 56.5662 23.2478C56.5662 25.0144 56.2113 26.763 55.5225 28.3898C54.1586 31.6258 51.581 34.1986 48.3424 35.5564C46.7062 36.2522 44.9452 36.6073 43.1672 36.6C41.4008 36.6075 39.6516 36.2527 38.0277 35.5576ZM44.5628 26.5511C44.9943 26.374 45.3863 26.113 45.716 25.7831C46.0673 25.4635 46.3467 25.0731 46.5359 24.6375C46.7252 24.202 46.8199 23.7313 46.8139 23.2564C46.8194 22.7802 46.7273 22.3079 46.5431 21.8686C46.3589 21.4294 46.0867 21.0326 45.7431 20.7027C45.0476 20.039 44.1199 19.6741 43.1586 19.6861C42.687 19.6852 42.2201 19.7785 41.7851 19.9606C41.359 20.1347 40.9683 20.3849 40.6319 20.699C40.2843 21.0272 40.0076 21.4231 39.8188 21.8623C39.63 22.3015 39.5331 22.7747 39.5341 23.2528C39.5293 23.7301 39.6274 24.2028 39.8217 24.6389C40.016 25.0749 40.302 25.4639 40.6602 25.7794C40.9833 26.1147 41.3717 26.3802 41.8014 26.5595C42.2311 26.7388 42.693 26.8281 43.1586 26.8219C43.6421 26.8278 44.1218 26.7361 44.569 26.5524L44.5628 26.5511Z" fill="#4443E4"/>
<path d="M67.2443 35.5586C64.0128 34.1805 61.4328 31.6156 60.036 28.3921C59.3384 26.7675 58.9786 25.0181 58.9786 23.2501C58.9786 21.4821 59.3384 19.7326 60.036 18.1081C60.7251 16.493 61.7178 15.0253 62.9602 13.7845C64.1829 12.5419 65.6387 11.5528 67.2443 10.8738C68.8667 10.179 70.6141 9.8238 72.379 9.83018C73.6258 9.76104 74.8725 9.96736 76.0305 10.4345V5.05248C76.0243 4.37225 76.1453 3.69685 76.3875 3.06116C76.7288 2.15293 77.3415 1.37188 78.1424 0.824221C78.9433 0.276565 79.8935 -0.0111095 80.8636 0.000328303C81.5193 1.94664e-05 82.1683 0.131005 82.7725 0.385552C83.367 0.629768 83.9046 0.99431 84.3515 1.45628C84.8112 1.91778 85.1706 2.46917 85.4075 3.07594C85.6556 3.70562 85.7809 4.37694 85.7767 5.05372V23.2587C85.7826 25.0235 85.4274 26.7709 84.733 28.3933C83.3686 31.6289 80.7912 34.2015 77.553 35.5599C75.9167 36.2557 74.1558 36.6108 72.3777 36.6035C70.6132 36.6093 68.8662 36.2537 67.2443 35.5586ZM73.7795 26.5521C74.2109 26.3748 74.6028 26.1138 74.9327 25.7841C75.284 25.4646 75.5635 25.0742 75.7527 24.6386C75.942 24.2031 76.0367 23.7323 76.0305 23.2575C76.0359 22.7814 75.9438 22.3092 75.7598 21.87C75.5759 21.4308 75.3041 21.0339 74.9611 20.7037C74.2653 20.0405 73.3377 19.6756 72.3765 19.6871C71.905 19.6862 71.438 19.7795 71.003 19.9616C70.5769 20.1355 70.1861 20.3857 69.8498 20.7C69.5022 21.0282 69.2255 21.4241 69.0367 21.8633C68.8479 22.3025 68.751 22.7757 68.752 23.2538C68.7472 23.7311 68.8453 24.2039 69.0396 24.6399C69.234 25.0759 69.52 25.4649 69.8781 25.7805C70.2013 26.1157 70.5897 26.3811 71.0194 26.5604C71.4491 26.7397 71.911 26.829 72.3765 26.8229C72.8572 26.8288 73.3343 26.7384 73.7795 26.5571V26.5521Z" fill="#4443E4"/>
<path d="M108.431 36.4237C107.9 36.2242 107.414 35.9204 107.003 35.5301C105.325 36.2361 103.524 36.6005 101.703 36.6021C99.9385 36.6085 98.1911 36.2533 96.5688 35.5584C94.9564 34.875 93.4853 33.8976 92.2304 32.6761C90.9716 31.456 89.9643 30.0009 89.2656 28.3931C88.5588 26.771 88.194 25.0206 88.194 23.2511C88.194 21.4817 88.5588 19.7313 89.2656 18.1091C89.9661 16.4904 90.9728 15.0223 92.2304 13.7856C93.4794 12.5497 94.9516 11.562 96.5688 10.8749C98.1912 10.1804 99.9385 9.82525 101.703 9.83125C103.491 9.82239 105.261 10.1775 106.907 10.8749C108.523 11.5558 109.992 12.5443 111.23 13.7856C112.473 15.0264 113.466 16.4941 114.155 18.1091C114.857 19.7348 115.217 21.4877 115.212 23.2585V31.7666C115.215 32.7507 114.924 33.7134 114.376 34.5306C113.827 35.3479 113.047 35.9823 112.135 36.3523C110.952 36.84 109.629 36.8646 108.428 36.4212L108.431 36.4237ZM103.119 26.552C103.561 26.3727 103.966 26.1122 104.313 25.784C104.674 25.47 104.965 25.0819 105.163 24.6459C105.362 24.21 105.465 23.7364 105.464 23.2573C105.461 22.7775 105.359 22.3035 105.166 21.8643C104.972 21.4252 104.691 21.0302 104.34 20.7035C103.983 20.3887 103.574 20.1387 103.131 19.9651C102.677 19.7829 102.192 19.6898 101.703 19.6906C101.228 19.6906 100.757 19.7839 100.318 19.9651C99.8797 20.1406 99.4754 20.3904 99.1225 20.7035C98.7611 21.0238 98.4716 21.417 98.2728 21.8571C98.0741 22.2972 97.9706 22.7744 97.9693 23.2573C97.9663 23.7396 98.0707 24.2166 98.2748 24.6536C98.479 25.0906 98.7778 25.4767 99.1496 25.784C99.8321 26.4515 100.749 26.8256 101.703 26.8264C102.188 26.8283 102.669 26.7351 103.117 26.552H103.119Z" fill="#4443E4"/>
<path d="M4.36716 42.8572C4.37702 42.8679 4.38461 42.8805 4.38947 42.8943C4.39434 42.908 4.39639 42.9226 4.39548 42.9372V43.331C4.3968 43.3457 4.39489 43.3606 4.38985 43.3744C4.38481 43.3883 4.37678 43.401 4.36634 43.4114C4.35589 43.4218 4.34327 43.4299 4.32938 43.4349C4.31549 43.44 4.30068 43.4419 4.28596 43.4405H2.93215C2.92732 43.4399 2.9224 43.4405 2.9178 43.4421C2.9132 43.4436 2.90904 43.4462 2.90559 43.4497C2.90215 43.4531 2.89951 43.4573 2.89793 43.4619C2.89635 43.4665 2.89587 43.4714 2.89647 43.4762V47.8146C2.89736 47.8292 2.89517 47.8439 2.89008 47.8577C2.885 47.8715 2.87711 47.884 2.86691 47.8946C2.85627 47.9047 2.8437 47.9125 2.82995 47.9176C2.8162 47.9226 2.80155 47.9248 2.78691 47.9241H2.3057C2.29106 47.9249 2.27638 47.9227 2.26262 47.9176C2.24886 47.9126 2.2363 47.9047 2.2257 47.8946C2.21572 47.8839 2.20804 47.8713 2.20317 47.8575C2.19829 47.8438 2.19633 47.8291 2.19738 47.8146V43.4762C2.19802 43.4713 2.19753 43.4663 2.19588 43.4616C2.19423 43.4569 2.1915 43.4526 2.18792 43.4491C2.18433 43.4456 2.17995 43.4431 2.17519 43.4416C2.17042 43.4401 2.16539 43.4397 2.16046 43.4405H0.87189C0.857174 43.4419 0.842361 43.44 0.828472 43.4349C0.814582 43.4299 0.801961 43.4218 0.791514 43.4114C0.781066 43.401 0.773039 43.3883 0.768002 43.3744C0.762964 43.3606 0.761047 43.3457 0.762368 43.331V42.9372C0.761047 42.9225 0.762964 42.9076 0.768002 42.8937C0.773039 42.8799 0.781066 42.8673 0.791514 42.8568C0.801961 42.8464 0.814582 42.8383 0.828472 42.8333C0.842361 42.8283 0.857174 42.8263 0.87189 42.8276H4.28472C4.29976 42.8266 4.31485 42.8287 4.32904 42.8338C4.34323 42.8389 4.35619 42.8469 4.36716 42.8572Z" fill="#2F3542"/>
<path d="M14.4483 43.4013C14.4375 43.4111 14.4248 43.4186 14.4111 43.4234C14.3974 43.4283 14.3828 43.4304 14.3683 43.4296H11.8281C11.8231 43.429 11.818 43.4296 11.8133 43.4312C11.8085 43.4329 11.8042 43.4356 11.8006 43.4391C11.7971 43.4427 11.7944 43.447 11.7927 43.4517C11.7911 43.4565 11.7905 43.4615 11.7911 43.4665V45.0173C11.7911 45.0419 11.8034 45.0529 11.8281 45.0529H13.5597C13.5744 45.0514 13.5894 45.0532 13.6034 45.0581C13.6174 45.0631 13.6301 45.0711 13.6406 45.0816C13.6511 45.0921 13.6591 45.1048 13.6641 45.1188C13.669 45.1328 13.6708 45.1477 13.6692 45.1625V45.5489C13.6708 45.5637 13.669 45.5786 13.6641 45.5926C13.6591 45.6066 13.6511 45.6193 13.6406 45.6298C13.6301 45.6403 13.6174 45.6483 13.6034 45.6533C13.5894 45.6582 13.5744 45.66 13.5597 45.6585H11.8281C11.8231 45.6579 11.818 45.6584 11.8133 45.6601C11.8085 45.6617 11.8042 45.6644 11.8006 45.668C11.7971 45.6715 11.7944 45.6758 11.7927 45.6806C11.7911 45.6853 11.7905 45.6904 11.7911 45.6954V47.2818C11.7903 47.2868 11.7906 47.292 11.7922 47.2969C11.7937 47.3018 11.7964 47.3062 11.8 47.3098C11.8037 47.3134 11.8081 47.3161 11.813 47.3177C11.8178 47.3192 11.823 47.3196 11.8281 47.3187H14.3683C14.3828 47.3179 14.3974 47.3201 14.4111 47.3249C14.4248 47.3298 14.4375 47.3373 14.4483 47.347C14.4584 47.3577 14.4662 47.3702 14.4712 47.384C14.4763 47.3977 14.4786 47.4124 14.4778 47.427V47.8135C14.4787 47.8281 14.4765 47.8428 14.4715 47.8566C14.4664 47.8704 14.4585 47.8829 14.4483 47.8935C14.4376 47.9036 14.425 47.9114 14.4113 47.9165C14.3975 47.9215 14.3829 47.9237 14.3683 47.923H11.2016C11.187 47.9237 11.1723 47.9215 11.1586 47.9165C11.1448 47.9114 11.1323 47.9036 11.1216 47.8935C11.1116 47.8828 11.104 47.8702 11.0991 47.8564C11.0942 47.8427 11.0922 47.828 11.0933 47.8135V42.9398C11.0922 42.9252 11.0942 42.9106 11.0991 42.8968C11.104 42.8831 11.1116 42.8704 11.1216 42.8598C11.1323 42.8497 11.1448 42.8419 11.1586 42.8368C11.1723 42.8317 11.187 42.8295 11.2016 42.8302H14.3683C14.3829 42.8295 14.3975 42.8317 14.4113 42.8368C14.425 42.8419 14.4376 42.8497 14.4483 42.8598C14.4585 42.8703 14.4664 42.8829 14.4715 42.8967C14.4765 42.9104 14.4787 42.9251 14.4778 42.9398V43.3262C14.478 43.3541 14.4674 43.381 14.4483 43.4013Z" fill="#2F3542"/>
<path d="M21.9718 47.7808C21.7099 47.6498 21.4921 47.4448 21.3454 47.1913C21.1943 46.9239 21.1177 46.6209 21.1238 46.3138V44.4283C21.117 44.1235 21.1937 43.8227 21.3454 43.5582C21.494 43.3081 21.7115 43.106 21.9718 42.9761C22.2595 42.8333 22.5774 42.7619 22.8986 42.7681C23.2181 42.7615 23.5348 42.8302 23.8229 42.9687C24.0803 43.0929 24.2964 43.2886 24.4456 43.5324C24.5969 43.7876 24.6736 44.0801 24.6671 44.3767C24.6671 44.4246 24.6314 44.4542 24.5576 44.464L24.0776 44.4936H24.0481C24.0277 44.4945 24.0076 44.4894 23.9902 44.4788C23.9754 44.4702 23.9681 44.4603 23.9681 44.4505V44.4062C23.9739 44.2679 23.951 44.1298 23.9008 44.0008C23.8506 43.8718 23.7742 43.7546 23.6764 43.6567C23.5721 43.5597 23.4494 43.4846 23.3156 43.4357C23.1818 43.3869 23.0396 43.3654 22.8973 43.3724C22.7545 43.3656 22.6118 43.3873 22.4775 43.4361C22.3431 43.4849 22.2198 43.5599 22.1146 43.6567C22.016 43.7541 21.9388 43.8712 21.8882 44.0003C21.8375 44.1294 21.8144 44.2676 21.8204 44.4062V46.3421C21.8143 46.4807 21.8374 46.6189 21.888 46.748C21.9387 46.8771 22.0159 46.9942 22.1146 47.0916C22.2198 47.1884 22.3431 47.2634 22.4775 47.3122C22.6118 47.361 22.7545 47.3827 22.8973 47.3759C23.0396 47.3829 23.1818 47.3614 23.3156 47.3126C23.4494 47.2637 23.5721 47.1886 23.6764 47.0916C23.7743 46.9937 23.8507 46.8765 23.9009 46.7475C23.9511 46.6185 23.974 46.4804 23.9681 46.3421C23.9672 46.3295 23.9694 46.3168 23.9746 46.3052C23.9797 46.2936 23.9876 46.2835 23.9976 46.2757C24.0215 46.2608 24.0502 46.256 24.0776 46.2621L24.5576 46.2904C24.6302 46.3003 24.6671 46.3114 24.6671 46.3273V46.363C24.6736 46.6608 24.5969 46.9545 24.4456 47.211C24.2968 47.4569 24.0807 47.6551 23.8229 47.7821C23.5339 47.9171 23.2188 47.987 22.8998 47.987C22.5808 47.987 22.2657 47.9171 21.9768 47.7821L21.9718 47.7808Z" fill="#2F3542"/>
<path d="M34.363 42.8569C34.3735 42.8467 34.3861 42.8388 34.3998 42.8337C34.4136 42.8287 34.4283 42.8265 34.4429 42.8274H34.9229C34.9376 42.8266 34.9522 42.8288 34.966 42.8338C34.9798 42.8389 34.9923 42.8468 35.0029 42.8569C35.0131 42.8675 35.021 42.88 35.0261 42.8938C35.0312 42.9076 35.0333 42.9223 35.0325 42.9369V47.8143C35.0333 47.829 35.0312 47.8436 35.0261 47.8574C35.021 47.8712 35.0131 47.8837 35.0029 47.8943C34.9923 47.9044 34.9798 47.9123 34.966 47.9174C34.9522 47.9224 34.9376 47.9246 34.9229 47.9238H34.4429C34.4282 47.9251 34.4134 47.9232 34.3995 47.9182C34.3856 47.9132 34.373 47.9051 34.3626 47.8947C34.3521 47.8842 34.3441 47.8716 34.339 47.8577C34.334 47.8438 34.3321 47.829 34.3334 47.8143V45.6962C34.3343 45.6912 34.3339 45.686 34.3324 45.6811C34.3308 45.6763 34.3281 45.6718 34.3245 45.6682C34.3209 45.6646 34.3165 45.6619 34.3116 45.6603C34.3067 45.6588 34.3015 45.6584 34.2965 45.6593H32.2375C32.2324 45.6584 32.2272 45.6588 32.2224 45.6603C32.2175 45.6619 32.2131 45.6646 32.2095 45.6682C32.2059 45.6718 32.2031 45.6763 32.2016 45.6811C32.2 45.686 32.1997 45.6912 32.2005 45.6962V47.8143C32.2014 47.829 32.1993 47.8436 32.1942 47.8574C32.1891 47.8712 32.1812 47.8837 32.171 47.8943C32.1604 47.9044 32.1478 47.9122 32.134 47.9173C32.1203 47.9224 32.1057 47.9246 32.091 47.9238H31.6098C31.5951 47.9246 31.5805 47.9224 31.5668 47.9173C31.553 47.9122 31.5405 47.9044 31.5298 47.8943C31.5198 47.8836 31.5122 47.871 31.5073 47.8573C31.5024 47.8435 31.5004 47.8289 31.5015 47.8143V42.9406C31.5004 42.926 31.5024 42.9114 31.5073 42.8976C31.5122 42.8839 31.5198 42.8713 31.5298 42.8606C31.5405 42.8505 31.553 42.8427 31.5668 42.8376C31.5805 42.8326 31.5951 42.8303 31.6098 42.8311H32.091C32.1057 42.8303 32.1203 42.8326 32.134 42.8376C32.1478 42.8427 32.1604 42.8505 32.171 42.8606C32.1812 42.8712 32.1891 42.8837 32.1942 42.8975C32.1993 42.9113 32.2014 42.926 32.2005 42.9406V45.023C32.1999 45.0279 32.2004 45.033 32.2021 45.0377C32.2037 45.0424 32.2065 45.0466 32.21 45.0501C32.2136 45.0536 32.218 45.0562 32.2227 45.0577C32.2275 45.0592 32.2325 45.0595 32.2375 45.0587H34.2965C34.3014 45.0595 34.3064 45.0592 34.3112 45.0577C34.316 45.0562 34.3203 45.0536 34.3239 45.0501C34.3275 45.0466 34.3302 45.0424 34.3319 45.0377C34.3335 45.033 34.334 45.0279 34.3334 45.023V42.9406C34.332 42.9254 34.3339 42.91 34.339 42.8955C34.3441 42.8811 34.3523 42.8679 34.363 42.8569Z" fill="#2F3542"/>
<path d="M42.0493 47.8923C42.0394 47.8816 42.0317 47.869 42.0268 47.8552C42.0219 47.8415 42.02 47.8268 42.021 47.8123V42.9398C42.02 42.9253 42.0219 42.9106 42.0268 42.8969C42.0317 42.8831 42.0394 42.8705 42.0493 42.8598C42.06 42.8498 42.0726 42.8419 42.0863 42.8368C42.1001 42.8318 42.1147 42.8295 42.1293 42.8303H42.5946C42.6211 42.8289 42.6475 42.835 42.6707 42.8479C42.694 42.8607 42.7132 42.8798 42.7262 42.9029L44.9539 46.5053C44.9625 46.52 44.9723 46.5262 44.9822 46.5237C44.992 46.5212 44.9969 46.5102 44.9969 46.4905V42.9398C44.9959 42.9253 44.9978 42.9106 45.0027 42.8969C45.0076 42.8831 45.0153 42.8705 45.0253 42.8598C45.0359 42.8498 45.0485 42.8419 45.0622 42.8368C45.076 42.8318 45.0906 42.8295 45.1052 42.8303H45.5865C45.6011 42.8295 45.6157 42.8318 45.6295 42.8368C45.6432 42.8419 45.6558 42.8498 45.6665 42.8598C45.6767 42.8704 45.6846 42.8829 45.6896 42.8967C45.6947 42.9105 45.6969 42.9252 45.696 42.9398V47.8172C45.6969 47.8319 45.6947 47.8465 45.6896 47.8603C45.6846 47.8741 45.6767 47.8866 45.6665 47.8972C45.6558 47.9073 45.6432 47.9151 45.6295 47.9202C45.6157 47.9253 45.6011 47.9275 45.5865 47.9268H45.1126C45.0861 47.928 45.0598 47.9218 45.0366 47.909C45.0133 47.8962 44.9941 47.8772 44.9809 47.8541L42.7546 44.2296C42.7435 44.2149 42.7348 44.2087 42.725 44.2112C42.7152 44.2136 42.7102 44.2247 42.7102 44.2432L42.7164 47.8123C42.7175 47.8268 42.7155 47.8415 42.7106 47.8552C42.7057 47.869 42.6981 47.8816 42.6881 47.8923C42.6774 47.9024 42.6649 47.9102 42.6511 47.9153C42.6374 47.9203 42.6227 47.9226 42.6081 47.9218H42.1281C42.1137 47.9224 42.0993 47.9201 42.0857 47.915C42.0722 47.9099 42.0598 47.9022 42.0493 47.8923Z" fill="#2F3542"/>
<path d="M53.425 47.7699C53.1593 47.63 52.9396 47.4163 52.7924 47.1546C52.6377 46.8754 52.5596 46.5604 52.5659 46.2414V44.5085C52.5593 44.1906 52.6375 43.8767 52.7924 43.599C52.9398 43.3374 53.1594 43.1238 53.425 42.9836C53.7186 42.8402 54.041 42.7657 54.3677 42.7657C54.6945 42.7657 55.0169 42.8402 55.3104 42.9836C55.576 43.1238 55.7956 43.3374 55.9431 43.599C56.0977 43.8768 56.1758 44.1906 56.1695 44.5085V46.2414C56.1756 46.5604 56.0974 46.8753 55.9431 47.1546C55.7958 47.4163 55.5762 47.63 55.3104 47.7699C55.017 47.9138 54.6945 47.9886 54.3677 47.9886C54.0409 47.9886 53.7184 47.9138 53.425 47.7699ZM55.1591 47.0783C55.262 46.9714 55.3422 46.8448 55.3947 46.706C55.4471 46.5672 55.4708 46.4192 55.4643 46.2709V44.5023C55.4711 44.3524 55.4476 44.2026 55.3952 44.062C55.3427 43.9214 55.2624 43.7928 55.1591 43.6839C55.0539 43.5802 54.9285 43.4992 54.7906 43.446C54.6528 43.3929 54.5055 43.3687 54.3579 43.375C54.211 43.3686 54.0644 43.3927 53.9273 43.4459C53.7902 43.4991 53.6657 43.5801 53.5616 43.6839C53.459 43.7932 53.3793 43.9219 53.3273 44.0625C53.2753 44.203 53.252 44.3526 53.2588 44.5023V46.2709C53.2523 46.419 53.2757 46.5668 53.3277 46.7055C53.3798 46.8443 53.4593 46.9711 53.5616 47.0783C53.6663 47.1811 53.791 47.2612 53.928 47.3137C54.065 47.3662 54.2113 47.3899 54.3579 47.3835C54.5052 47.3898 54.6522 47.366 54.79 47.3136C54.9277 47.2611 55.0533 47.181 55.1591 47.0783Z" fill="#2F3542"/>
<path d="M63.0854 47.8925C63.0752 47.8819 63.0673 47.8694 63.0622 47.8556C63.0571 47.8418 63.0549 47.8272 63.0558 47.8125V42.9401C63.0545 42.9253 63.0564 42.9105 63.0615 42.8966C63.0665 42.8827 63.0745 42.8701 63.085 42.8597C63.0954 42.8492 63.108 42.8412 63.1219 42.8361C63.1358 42.8311 63.1507 42.8292 63.1654 42.8305H63.6466C63.6613 42.8292 63.6761 42.8311 63.69 42.8361C63.7039 42.8412 63.7165 42.8492 63.727 42.8597C63.7374 42.8701 63.7454 42.8827 63.7505 42.8966C63.7555 42.9105 63.7574 42.9253 63.7561 42.9401V47.2858C63.7553 47.2908 63.7556 47.296 63.7572 47.3008C63.7587 47.3057 63.7614 47.3101 63.7651 47.3138C63.7687 47.3174 63.7731 47.3201 63.778 47.3216C63.7828 47.3232 63.788 47.3236 63.793 47.3227H66.2545C66.269 47.3219 66.2836 47.324 66.2973 47.3289C66.311 47.3337 66.3237 47.3412 66.3345 47.351C66.3444 47.3617 66.3519 47.3743 66.3568 47.3881C66.3617 47.4018 66.3637 47.4164 66.3628 47.431V47.8174C66.3639 47.832 66.3619 47.8466 66.357 47.8604C66.3522 47.8742 66.3445 47.8868 66.3345 47.8974C66.3239 47.9075 66.3113 47.9153 66.2975 47.9204C66.2838 47.9255 66.2691 47.9277 66.2545 47.927H63.1617C63.1473 47.9267 63.1331 47.9235 63.12 47.9176C63.1069 47.9117 63.0951 47.9031 63.0854 47.8925Z" fill="#2F3542"/>
<path d="M73.7116 47.7701C73.4459 47.6302 73.2262 47.4165 73.079 47.1547C72.9244 46.8756 72.8462 46.5605 72.8526 46.2415V44.5087C72.846 44.1908 72.9241 43.8768 73.079 43.5991C73.2264 43.3376 73.4461 43.1239 73.7116 42.9838C74.0052 42.8403 74.3276 42.7657 74.6543 42.7657C74.9811 42.7657 75.3035 42.8403 75.5971 42.9838C75.8629 43.124 76.0829 43.3376 76.2309 43.5991C76.3855 43.877 76.4636 44.1908 76.4574 44.5087V46.2415C76.4633 46.5605 76.3852 46.8755 76.2309 47.1547C76.0831 47.4164 75.863 47.6301 75.5971 47.7701C75.3036 47.914 74.9812 47.9889 74.6543 47.9889C74.3275 47.9889 74.005 47.914 73.7116 47.7701ZM75.4506 47.0784C75.5538 46.9717 75.634 46.8451 75.6865 46.7062C75.739 46.5674 75.7626 46.4193 75.7558 46.2711V44.5025C75.7631 44.3525 75.7398 44.2026 75.6873 44.0619C75.6349 43.9212 75.5543 43.7927 75.4506 43.6841C75.3456 43.5804 75.2204 43.4995 75.0828 43.4463C74.9451 43.3932 74.7981 43.3689 74.6507 43.3751C74.5038 43.3687 74.3571 43.3929 74.2201 43.446C74.083 43.4992 73.9585 43.5803 73.8544 43.6841C73.7519 43.7934 73.6723 43.9221 73.6203 44.0627C73.5683 44.2033 73.5449 44.3528 73.5516 44.5025V46.2711C73.5455 46.419 73.5692 46.5667 73.6212 46.7054C73.6732 46.8441 73.7525 46.9709 73.8544 47.0784C73.9591 47.1812 74.0838 47.2613 74.2208 47.3138C74.3577 47.3663 74.5041 47.3901 74.6507 47.3836C74.7978 47.3899 74.9445 47.366 75.0821 47.3136C75.2197 47.2611 75.3451 47.1811 75.4506 47.0784Z" fill="#2F3542"/>
<path d="M84.0549 47.7736C83.7929 47.6426 83.5751 47.4377 83.4285 47.1841C83.2774 46.9167 83.2009 46.6136 83.207 46.3066V44.4433C83.2002 44.1349 83.2767 43.8305 83.4285 43.562C83.5762 43.3102 83.7938 43.1067 84.0549 42.9762C84.3449 42.8408 84.661 42.7706 84.9811 42.7706C85.3011 42.7706 85.6172 42.8408 85.9072 42.9762C86.1643 43.1014 86.3804 43.2973 86.53 43.5411C86.6795 43.7848 86.7564 44.0662 86.7515 44.3522V44.3965C86.7521 44.4111 86.7498 44.4257 86.7447 44.4394C86.7396 44.4532 86.7319 44.4658 86.7219 44.4765C86.7112 44.4863 86.6985 44.4939 86.6848 44.4988C86.6711 44.5037 86.6565 44.5057 86.6419 44.5048H86.1607C86.1323 44.5069 86.104 44.4991 86.0807 44.4826C86.072 44.4773 86.0647 44.4699 86.0596 44.4611C86.0544 44.4523 86.0515 44.4424 86.0512 44.4322V44.3669C86.056 44.2346 86.0323 44.1027 85.9815 43.9804C85.9307 43.858 85.8542 43.7481 85.757 43.658C85.5438 43.4699 85.2658 43.3719 84.9817 43.3848C84.8389 43.3779 84.6963 43.3993 84.5619 43.4479C84.4275 43.4965 84.3042 43.5712 84.1989 43.6679C84.0998 43.7665 84.0224 43.8848 83.9717 44.0152C83.9211 44.1456 83.8982 44.2851 83.9048 44.4248V46.3312C83.8986 46.4718 83.9226 46.6122 83.9753 46.7427C84.0279 46.8733 84.108 46.9911 84.21 47.0881C84.4298 47.2837 84.7173 47.3857 85.0112 47.3724C85.2865 47.3879 85.5577 47.3001 85.7718 47.1263C85.8659 47.039 85.9398 46.9322 85.9883 46.8133C86.0367 46.6945 86.0586 46.5665 86.0524 46.4383V45.8857C86.0532 45.8806 86.0529 45.8755 86.0513 45.8706C86.0498 45.8657 86.0471 45.8613 86.0435 45.8577C86.0399 45.8541 86.0354 45.8513 86.0306 45.8498C86.0257 45.8482 86.0205 45.8479 86.0155 45.8487H85.0777C85.0631 45.8496 85.0485 45.8476 85.0348 45.8428C85.021 45.8379 85.0084 45.8303 84.9977 45.8204C84.9874 45.8097 84.9794 45.7969 84.9743 45.7829C84.9692 45.7689 84.9671 45.7541 84.9681 45.7392V45.3614C84.9668 45.3467 84.9687 45.3318 84.9738 45.3179C84.9788 45.3041 84.9868 45.2914 84.9973 45.281C85.0077 45.2705 85.0203 45.2625 85.0342 45.2575C85.0481 45.2524 85.0629 45.2505 85.0777 45.2518H86.6395C86.654 45.2509 86.6686 45.253 86.6824 45.2578C86.6961 45.2627 86.7087 45.2703 86.7195 45.2802C86.7294 45.2909 86.7372 45.3035 86.7422 45.3172C86.7473 45.3309 86.7496 45.3455 86.749 45.3601V46.2487C86.7641 46.4849 86.7295 46.7216 86.6475 46.9435C86.5655 47.1655 86.4378 47.3678 86.2727 47.5373C85.9181 47.8519 85.4538 48.0142 84.9805 47.989C84.6591 47.9926 84.3416 47.9187 84.0549 47.7736Z" fill="#2F3542"/>
<path d="M93.6062 47.8925C93.596 47.8819 93.588 47.8694 93.583 47.8556C93.5779 47.8418 93.5757 47.8272 93.5766 47.8125V42.9401C93.5757 42.9254 93.5779 42.9107 93.583 42.8969C93.588 42.8832 93.596 42.8706 93.6062 42.8601C93.6168 42.85 93.6294 42.8421 93.6431 42.8371C93.6569 42.832 93.6715 42.8298 93.6862 42.8305H94.1674C94.1821 42.8292 94.1969 42.8311 94.2108 42.8361C94.2247 42.8412 94.2373 42.8492 94.2478 42.8597C94.2582 42.8701 94.2662 42.8827 94.2713 42.8966C94.2763 42.9105 94.2782 42.9253 94.2769 42.9401V47.8174C94.2782 47.8321 94.2763 47.847 94.2713 47.8609C94.2662 47.8748 94.2582 47.8873 94.2478 47.8978C94.2373 47.9082 94.2247 47.9163 94.2108 47.9213C94.1969 47.9263 94.1821 47.9283 94.1674 47.927H93.6862C93.6712 47.9271 93.6563 47.9241 93.6425 47.9182C93.6288 47.9122 93.6164 47.9035 93.6062 47.8925Z" fill="#2F3542"/>
<path d="M104.646 43.4014C104.636 43.4112 104.623 43.4187 104.609 43.4236C104.596 43.4284 104.581 43.4305 104.567 43.4297H102.027C102.022 43.4291 102.017 43.4296 102.013 43.4313C102.008 43.4329 102.004 43.4356 102 43.4392C101.997 43.4427 101.994 43.447 101.992 43.4518C101.991 43.4565 101.99 43.4616 101.991 43.4666V45.0173C101.99 45.0223 101.99 45.0273 101.992 45.032C101.994 45.0367 101.996 45.041 102 45.0444C102.004 45.0479 102.008 45.0505 102.013 45.052C102.018 45.0535 102.023 45.0538 102.027 45.053H103.759C103.774 45.0521 103.788 45.0542 103.802 45.0591C103.816 45.064 103.828 45.0715 103.839 45.0813C103.859 45.1031 103.87 45.1318 103.869 45.1613V45.5478C103.869 45.5624 103.867 45.577 103.862 45.5907C103.857 45.6044 103.849 45.617 103.839 45.6278C103.828 45.6377 103.816 45.6453 103.802 45.6502C103.788 45.655 103.774 45.6571 103.759 45.6561H102.027C102.022 45.6552 102.017 45.6556 102.012 45.6571C102.008 45.6587 102.003 45.6614 102 45.665C101.996 45.6686 101.993 45.673 101.992 45.6779C101.99 45.6828 101.99 45.688 101.991 45.693V47.2794C101.99 47.2844 101.99 47.2896 101.992 47.2945C101.993 47.2993 101.996 47.3038 102 47.3074C102.003 47.311 102.008 47.3137 102.012 47.3153C102.017 47.3168 102.022 47.3172 102.027 47.3163H104.567C104.581 47.3155 104.596 47.3176 104.609 47.3224C104.623 47.3273 104.636 47.3348 104.646 47.3446C104.657 47.3552 104.664 47.3679 104.669 47.3816C104.675 47.3954 104.677 47.41 104.676 47.4246V47.8111C104.677 47.8257 104.675 47.8404 104.67 47.8542C104.665 47.8679 104.657 47.8805 104.646 47.8911C104.636 47.9012 104.623 47.9091 104.61 47.9142C104.596 47.9192 104.581 47.9214 104.567 47.9206H101.404C101.389 47.9215 101.374 47.9193 101.36 47.9143C101.347 47.9092 101.334 47.9013 101.324 47.8911C101.313 47.8806 101.305 47.868 101.3 47.8542C101.295 47.8405 101.293 47.8258 101.294 47.8111V42.9398C101.293 42.9252 101.295 42.9104 101.3 42.8967C101.305 42.8829 101.313 42.8703 101.324 42.8598C101.334 42.8496 101.347 42.8417 101.36 42.8367C101.374 42.8316 101.389 42.8294 101.404 42.8303H104.569C104.584 42.8295 104.598 42.8317 104.612 42.8368C104.626 42.8418 104.638 42.8497 104.649 42.8598C104.659 42.8704 104.667 42.883 104.672 42.8967C104.677 42.9105 104.679 42.9252 104.678 42.9398V43.3263C104.678 43.3546 104.667 43.3816 104.646 43.4014Z" fill="#2F3542"/>
<path d="M112.087 47.8062C111.834 47.7058 111.616 47.5349 111.458 47.3139C111.308 47.0931 111.23 46.8312 111.236 46.5644V46.3896C111.235 46.3603 111.245 46.3316 111.264 46.3097C111.286 46.2898 111.315 46.2791 111.344 46.2801H111.81C111.824 46.279 111.839 46.2811 111.853 46.2862C111.867 46.2913 111.879 46.2993 111.89 46.3097C111.9 46.3201 111.908 46.3327 111.913 46.3465C111.918 46.3603 111.92 46.375 111.919 46.3896V46.5275C111.918 46.6484 111.947 46.7678 112.002 46.8751C112.058 46.9824 112.14 47.0743 112.239 47.1428C112.489 47.3158 112.788 47.4022 113.091 47.389C113.36 47.409 113.628 47.3346 113.848 47.1786C113.93 47.1123 113.996 47.0277 114.04 46.9316C114.085 46.8355 114.106 46.7304 114.103 46.6247C114.106 46.4843 114.059 46.3474 113.971 46.2383C113.864 46.1165 113.734 46.0166 113.589 45.9441C113.352 45.8228 113.108 45.7147 112.858 45.6204C112.571 45.515 112.29 45.3917 112.018 45.2512C111.816 45.1439 111.64 44.9935 111.503 44.8106C111.362 44.6099 111.29 44.3682 111.299 44.1226C111.29 43.9349 111.326 43.7477 111.404 43.5766C111.481 43.4054 111.599 43.2551 111.746 43.1381C112.097 42.8839 112.525 42.7579 112.958 42.7811C113.283 42.7743 113.605 42.8364 113.904 42.9633C114.158 43.0702 114.376 43.2469 114.533 43.4728C114.683 43.6965 114.76 43.9607 114.755 44.2297V44.3392C114.756 44.3538 114.754 44.3684 114.749 44.3821C114.744 44.3959 114.736 44.4085 114.726 44.4192C114.716 44.4292 114.703 44.437 114.689 44.442C114.676 44.4471 114.661 44.4494 114.646 44.4488H114.173C114.144 44.4498 114.115 44.4407 114.093 44.4229C114.083 44.4142 114.076 44.4036 114.071 44.3916C114.066 44.3797 114.064 44.3669 114.064 44.354V44.2666C114.066 44.1455 114.039 44.0257 113.987 43.9166C113.934 43.8075 113.857 43.712 113.762 43.6377C113.522 43.4596 113.227 43.3724 112.928 43.3916C112.681 43.3765 112.436 43.4417 112.229 43.5774C112.148 43.6398 112.083 43.7213 112.04 43.8146C111.997 43.9079 111.977 44.0102 111.983 44.1128C111.977 44.254 112.02 44.393 112.106 44.5054C112.208 44.6217 112.334 44.7148 112.476 44.7786C112.64 44.8607 112.888 44.9636 113.221 45.0875C113.507 45.1953 113.786 45.3186 114.058 45.4567C114.266 45.5664 114.448 45.7206 114.59 45.9084C114.735 46.1106 114.809 46.3551 114.8 46.6038C114.806 46.8624 114.732 47.1166 114.59 47.3324C114.437 47.553 114.223 47.7241 113.975 47.8247C113.677 47.9473 113.357 48.0068 113.035 47.9994C112.709 48.0002 112.386 47.9345 112.087 47.8062Z" fill="#2F3542"/>
<path d="M116.51 9.64221V9.81821C116.511 9.82658 116.51 9.83511 116.507 9.84315C116.505 9.85118 116.5 9.85848 116.494 9.86446C116.488 9.87045 116.481 9.87496 116.473 9.87761C116.465 9.88026 116.456 9.88098 116.448 9.87973H115.536C115.533 9.87937 115.53 9.87972 115.527 9.88075C115.523 9.88177 115.521 9.88346 115.518 9.88568C115.516 9.88791 115.514 9.89063 115.513 9.89365C115.512 9.89666 115.511 9.8999 115.511 9.90313V12.847C115.513 12.8554 115.512 12.8639 115.509 12.872C115.507 12.88 115.502 12.8873 115.496 12.8933C115.49 12.8993 115.483 12.9038 115.475 12.9064C115.467 12.9091 115.458 12.9098 115.45 12.9086H115.236C115.227 12.9098 115.219 12.909 115.211 12.9064C115.203 12.9037 115.195 12.8992 115.189 12.8933C115.183 12.8873 115.178 12.8801 115.176 12.8721C115.173 12.864 115.172 12.8555 115.173 12.847V9.90313C115.173 9.89996 115.173 9.89674 115.172 9.89372C115.171 9.8907 115.169 9.88796 115.167 9.8857C115.165 9.88345 115.162 9.88174 115.159 9.88071C115.156 9.87967 115.153 9.87933 115.15 9.87973H114.275C114.266 9.88098 114.258 9.88026 114.25 9.87761C114.242 9.87496 114.234 9.87045 114.228 9.86446C114.222 9.85848 114.218 9.85118 114.215 9.84315C114.212 9.83511 114.212 9.82658 114.213 9.81821V9.64221C114.212 9.63384 114.212 9.6253 114.215 9.61727C114.218 9.60923 114.222 9.60192 114.228 9.59594C114.234 9.58995 114.242 9.58546 114.25 9.58281C114.258 9.58016 114.266 9.57942 114.275 9.58067H116.448C116.456 9.57942 116.465 9.58016 116.473 9.58281C116.481 9.58546 116.488 9.58995 116.494 9.59594C116.5 9.60192 116.505 9.60923 116.507 9.61727C116.51 9.6253 116.511 9.63384 116.51 9.64221Z" fill="#4443E4"/>
<path d="M117.156 12.847V9.64709C117.155 9.63866 117.156 9.6301 117.159 9.62208C117.162 9.61406 117.166 9.60679 117.172 9.60084C117.178 9.59489 117.186 9.59042 117.194 9.58777C117.202 9.58512 117.211 9.58436 117.219 9.58555H117.442C117.456 9.5857 117.47 9.58979 117.483 9.59738C117.495 9.60497 117.505 9.61577 117.512 9.62863L118.382 11.0009C118.391 11.0214 118.401 11.0214 118.412 11.0009L119.285 9.62863C119.292 9.61584 119.303 9.60513 119.315 9.59757C119.328 9.59001 119.342 9.58587 119.357 9.58555H119.579C119.588 9.5843 119.596 9.58504 119.604 9.58769C119.612 9.59034 119.62 9.59485 119.626 9.60084C119.632 9.60682 119.636 9.61412 119.639 9.62215C119.642 9.63019 119.642 9.63872 119.641 9.64709V12.847C119.642 12.8554 119.642 12.8639 119.639 12.8719C119.636 12.88 119.632 12.8873 119.626 12.8933C119.62 12.8992 119.612 12.9037 119.604 12.9064C119.596 12.9091 119.588 12.9098 119.579 12.9085H119.364C119.356 12.9098 119.347 12.9091 119.339 12.9064C119.331 12.9037 119.324 12.8992 119.318 12.8933C119.312 12.8873 119.307 12.88 119.305 12.8719C119.302 12.8639 119.301 12.8554 119.303 12.847V10.2231C119.303 10.2095 119.303 10.2034 119.293 10.2034C119.283 10.2034 119.282 10.2034 119.274 10.2182L118.524 11.407C118.516 11.4198 118.506 11.4304 118.493 11.4379C118.481 11.4455 118.467 11.4497 118.452 11.4501H118.343C118.328 11.4497 118.314 11.4455 118.301 11.4379C118.289 11.4304 118.278 11.4198 118.271 11.407L117.52 10.2182C117.513 10.2083 117.507 10.2034 117.501 10.2034C117.495 10.2034 117.492 10.2095 117.492 10.2231V12.847C117.493 12.8553 117.492 12.8638 117.49 12.8717C117.487 12.8796 117.482 12.8868 117.476 12.8927C117.47 12.8986 117.463 12.9031 117.455 12.9059C117.447 12.9086 117.439 12.9095 117.431 12.9085H117.218C117.209 12.9095 117.201 12.9086 117.193 12.9059C117.185 12.9031 117.178 12.8986 117.172 12.8927C117.166 12.8868 117.162 12.8796 117.159 12.8717C117.156 12.8638 117.155 12.8553 117.156 12.847Z" fill="#4443E4"/>
</svg>
