<svg width="47" height="47" viewBox="0 0 47 47" fill="none" xmlns="http://www.w3.org/2000/svg">
<rect width="47" height="47" rx="23.5" fill="#2F3542"/>
<g clip-path="url(#clip0_4_3730)">
<path d="M32.0919 13.103L13.5856 23.7771C12.6355 24.3265 12.7306 25.7269 13.7426 26.1441L19.5341 28.54V32.7535C19.5341 34.001 21.0955 34.5422 21.8763 33.5921L24.3837 30.5435L29.6051 32.6998C30.3941 33.0261 31.2864 32.5263 31.4144 31.6795L34.0582 14.4497C34.2276 13.3467 33.042 12.5536 32.0919 13.103ZM20.856 32.7535V29.0853L23.1073 30.0147L20.856 32.7535ZM30.1091 31.4771L21.5913 27.9576L29.8323 18.217C30.0306 17.9857 29.7125 17.6717 29.4812 17.87L18.9351 26.8588L14.2466 24.9255L32.7528 14.2472L30.1091 31.4771Z" fill="white"/>
</g>
<defs>
<clipPath id="clip0_4_3730">
<rect width="21.15" height="21.15" fill="white" transform="translate(12.9253 12.925)"/>
</clipPath>
</defs>
</svg>
