<svg width="36" height="47" viewBox="0 0 36 47" fill="none" xmlns="http://www.w3.org/2000/svg">
<path d="M34.6551 11.8561V40.3561C34.6551 43.5101 32.1091 46.0561 28.9551 46.0561H6.15508C3.00108 46.0561 0.455078 43.5101 0.455078 40.3561V6.15605C0.455078 3.00205 3.00108 0.456055 6.15508 0.456055H23.2551L34.6551 11.8561Z" fill="white"/>
<path d="M28.956 46.512H6.156C2.736 46.512 0 43.738 0 40.356V6.156C0 2.736 2.736 0 6.156 0H23.256C23.37 0 23.484 0.038 23.598 0.152L34.998 11.552C35.074 11.628 35.15 11.78 35.15 11.894V40.394C35.112 43.776 32.376 46.512 28.956 46.512ZM6.156 0.912C3.268 0.912 0.912001 3.268 0.912001 6.156V40.356C0.912001 43.244 3.268 45.6 6.156 45.6H28.956C31.844 45.6 34.2 43.244 34.2 40.356V12.046L23.066 0.912H6.156Z" fill="#565D6D"/>
<path d="M28.9552 40.6419H6.15522C5.88922 40.6419 5.69922 40.4139 5.69922 40.1859C5.69922 39.9579 5.92722 39.7299 6.15522 39.7299H28.9552C29.2212 39.7299 29.4112 39.9579 29.4112 40.1859C29.4112 40.4139 29.2212 40.6419 28.9552 40.6419ZM28.9552 36.0819H6.15522C5.88922 36.0819 5.69922 35.8539 5.69922 35.6259C5.69922 35.3979 5.92722 35.1699 6.15522 35.1699H28.9552C29.2212 35.1699 29.4112 35.3979 29.4112 35.6259C29.4112 35.8539 29.2212 36.0819 28.9552 36.0819ZM28.9552 31.5219H6.15522C5.88922 31.5219 5.69922 31.2939 5.69922 31.0659C5.69922 30.8379 5.92722 30.6099 6.15522 30.6099H28.9552C29.2212 30.6099 29.4112 30.8379 29.4112 31.0659C29.4112 31.2939 29.2212 31.5219 28.9552 31.5219Z" fill="#565D6D"/>
<path opacity="0.2" d="M34.5147 13.586V12.066L23.1147 0.666016H21.5947V6.36602C21.5947 10.356 24.8247 13.586 28.8147 13.586H34.5147Z" fill="#565D6D"/>
<path d="M23.1055 6.37578C23.1055 9.52978 25.6515 12.0758 28.8055 12.0758H34.5055L23.1055 0.675781V6.37578Z" fill="#4443E4"/>
<path d="M34.6123 12.434H28.9123C25.4923 12.434 22.7563 9.65998 22.7563 6.27798V0.577984C22.7563 0.387984 22.8703 0.197984 23.0603 0.121984C23.2503 0.0459844 23.4403 0.0839844 23.5923 0.235984L34.9923 11.636C35.1443 11.788 35.1823 11.978 35.1063 12.168C34.9923 12.32 34.8023 12.434 34.6123 12.434ZM23.6683 1.71798V6.27798C23.6683 9.16598 26.0243 11.522 28.9123 11.522H33.4723L23.6683 1.71798ZM8.46833 25.506C8.46833 25.962 8.16433 26.266 7.70833 26.266C7.25233 26.266 6.98633 25.962 6.98633 25.506C6.98633 25.088 7.29033 24.784 7.70833 24.784C8.12633 24.784 8.46833 25.088 8.46833 25.506ZM11.0523 28.09C11.0523 28.356 10.8623 28.508 10.5963 28.508C10.2923 28.508 10.1023 28.356 10.1023 28.09V20.604C10.1023 20.338 10.2923 20.186 10.5963 20.186C10.8623 20.186 11.0523 20.3 11.0523 20.566V20.756C11.0523 20.908 11.0523 21.174 11.0143 21.364C11.3943 20.604 11.9643 20.11 13.0283 20.11C14.6243 20.11 15.5363 21.288 15.5363 23.188C15.5363 25.088 14.5863 26.38 12.9523 26.38C11.9643 26.38 11.3563 25.886 10.9763 25.126C11.0143 25.316 11.0143 25.544 11.0143 25.734V28.09H11.0523ZM11.0523 23.226C11.0523 24.556 11.7363 25.506 12.8763 25.506C13.9783 25.506 14.5863 24.594 14.5863 23.188C14.5863 21.782 13.9783 20.908 12.9143 20.908C11.6983 20.946 11.0523 21.896 11.0523 23.226ZM21.0463 18.21C21.0463 17.906 21.2363 17.792 21.5023 17.792C21.8063 17.792 21.9963 17.944 21.9963 18.21V25.848C21.9963 26.152 21.8063 26.266 21.5023 26.266C21.1983 26.266 21.0463 26.076 21.0463 25.886V25.658C21.0463 25.544 21.0843 25.316 21.0843 25.164C20.7043 25.924 20.0963 26.38 19.1083 26.38C17.5503 26.38 16.5623 25.164 16.5623 23.226C16.5623 21.364 17.5503 20.148 19.1463 20.148C20.1343 20.148 20.7423 20.604 21.1223 21.364C21.0843 21.136 21.0843 20.794 21.0843 20.566V18.21H21.0463ZM17.5123 23.188C17.5123 24.594 18.1203 25.506 19.2223 25.506C20.3623 25.506 21.0463 24.518 21.0463 23.188C21.0463 21.896 20.4003 20.908 19.2223 20.908C18.1583 20.946 17.5123 21.82 17.5123 23.188ZM24.2383 19.464C24.2383 18.096 25.0743 17.716 25.9103 17.716C26.2523 17.716 26.5183 17.754 26.8223 17.83C27.0123 17.906 27.1263 18.058 27.1263 18.21C27.1263 18.286 27.1263 18.362 27.0883 18.4C27.0123 18.59 26.8603 18.704 26.6703 18.704C26.6323 18.704 26.5563 18.704 26.4803 18.666C26.2903 18.59 26.1003 18.552 25.8723 18.552C25.4923 18.552 25.1883 18.78 25.1883 19.54V20.186H26.4803C26.7463 20.186 26.8603 20.376 26.8603 20.642C26.8603 20.87 26.7083 21.06 26.4803 21.06H25.1883V25.81C25.1883 26.114 24.9983 26.228 24.6943 26.228C24.3903 26.228 24.2003 26.076 24.2003 25.81V21.098H23.2883C23.0223 21.098 22.9083 20.946 22.9083 20.68C22.9083 20.414 23.0223 20.224 23.2883 20.224H24.2003V19.464H24.2383Z" fill="#565D6D"/>
</svg>
