<?xml version="1.0" encoding="UTF-8"?>
<svg version="1.1" xmlns="http://www.w3.org/2000/svg" width="512" height="512">
<path d="M0 0 C0.69673828 -0.03738281 1.39347656 -0.07476563 2.11132812 -0.11328125 C13.20331792 -0.29331355 22.98555408 6.21265009 32.1875 11.75 C34.29644686 12.99942088 36.40583737 14.24809314 38.515625 15.49609375 C39.59392578 16.13659668 40.67222656 16.77709961 41.78320312 17.43701172 C47.14341953 20.60477511 52.54052537 23.7079158 57.9375 26.8125 C60.12244605 28.07152744 62.30734166 29.33064242 64.4921875 30.58984375 C65.57725586 31.21487793 66.66232422 31.83991211 67.78027344 32.48388672 C73.20909942 35.61180148 78.63569281 38.74358448 84.0625 41.875 C86.22915583 43.12501879 88.3958225 44.37501878 90.5625 45.625 C155.5625 83.125 220.5625 120.625 285.5625 158.125 C286.63516113 158.74383057 287.70782227 159.36266113 288.81298828 160.00024414 C290.97807071 161.24935518 293.14310982 162.49854129 295.30810547 163.74780273 C300.74865706 166.88702309 306.18997216 170.02490563 311.6328125 173.16015625 C323.06886805 179.74963222 334.48642693 186.36867837 345.87890625 193.03320312 C353.02485493 197.20557552 360.20276301 201.31994113 367.39324951 205.41482544 C371.49700147 207.75385377 375.59540564 210.10224327 379.69433594 212.44970703 C381.8985587 213.70967374 384.10486356 214.96600667 386.31347656 216.21826172 C389.32025684 217.9251041 392.31727996 219.64797323 395.3125 221.375 C396.62371826 222.11182007 396.62371826 222.11182007 397.96142578 222.86352539 C405.58666789 227.29776132 412.56609624 232.69159582 416 241.0625 C416.38027344 241.95324219 416.76054687 242.84398437 417.15234375 243.76171875 C420.68180827 253.89567481 419.5767115 263.87801547 415.06640625 273.5 C409.76513459 282.89187228 400.75957698 288.52617884 391.5 293.5 C389.44961643 294.62987074 387.40016547 295.76143526 385.3515625 296.89453125 C384.30774414 297.46896973 383.26392578 298.0434082 382.18847656 298.63525391 C377.20521192 301.40866408 372.29127091 304.29750501 367.375 307.1875 C358.63709738 312.30855734 349.86234192 317.36147413 341.0625 322.375 C331.34115901 327.91468899 321.65354908 333.50875063 311.99560547 339.15844727 C301.47165375 345.31266742 290.90869863 351.39869996 280.34472656 357.48388672 C274.91590058 360.61180148 269.48930719 363.74358448 264.0625 366.875 C261.89584417 368.12501879 259.7291775 369.37501878 257.5625 370.625 C256.49 371.24375 255.4175 371.8625 254.3125 372.5 C158.4375 427.8125 158.4375 427.8125 62.5625 483.125 C61.4885498 483.7447168 60.41459961 484.36443359 59.30810547 485.00292969 C57.15654289 486.24395435 55.00452955 487.48419789 52.85205078 488.72363281 C47.8016424 491.63299897 42.75598022 494.54973136 37.72650146 497.49511719 C35.94639585 498.53709484 34.16483462 499.57653835 32.3828125 500.61523438 C30.14810803 501.91881198 27.91615707 503.22712585 25.6875 504.54101562 C17.39952952 509.36512058 10.37516286 512.95224753 0.625 512.8125 C-0.49249634 512.80114014 -0.49249634 512.80114014 -1.63256836 512.78955078 C-7.47006994 512.61480202 -11.99767105 511.62117331 -16.9375 508.375 C-17.63101563 507.93929688 -18.32453125 507.50359375 -19.0390625 507.0546875 C-26.83195548 501.71349119 -32.17119868 494.3313441 -34.50350451 485.1458661 C-35.0488252 481.66423866 -35.07769521 478.24247022 -35.06892776 474.72864246 C-35.0709804 473.9627243 -35.07303303 473.19680614 -35.07514787 472.40767834 C-35.08081802 469.83221968 -35.0793606 467.25681451 -35.07794189 464.68135071 C-35.08052552 462.81975197 -35.08353867 460.95815378 -35.0869453 459.09655637 C-35.09501884 453.97364511 -35.09680506 448.85074787 -35.09754276 443.72783101 C-35.0993927 438.20551815 -35.10693972 432.68321258 -35.11367798 427.16090393 C-35.12726423 415.08240237 -35.13328644 403.00390413 -35.13768864 390.9253962 C-35.1404505 383.38484073 -35.14468775 375.84428653 -35.14919281 368.30373192 C-35.16138574 347.42982861 -35.17172046 326.55592599 -35.1750679 305.68201923 C-35.17528953 304.33235352 -35.17551132 302.9826878 -35.17573325 301.63302208 C-35.17595389 300.28011158 -35.17617438 298.92720108 -35.1763947 297.57429057 C-35.17683725 294.8601553 -35.17728437 292.14602003 -35.17773438 289.43188477 C-35.17789846 288.42246445 -35.17789846 288.42246445 -35.17806586 287.39265181 C-35.18169636 265.57313167 -35.19761648 243.75364476 -35.22092474 221.93413735 C-35.24552682 198.86123453 -35.25923419 175.78834706 -35.26043582 152.71542901 C-35.26135287 140.13961131 -35.2671127 127.56383711 -35.28525543 114.98803139 C-35.30064919 104.27990565 -35.30578113 93.57183686 -35.29751733 82.86370216 C-35.29360831 77.40024174 -35.29455282 71.93689604 -35.30857468 66.47344971 C-35.3212982 61.47013204 -35.32012959 56.46701549 -35.30798396 51.46369817 C-35.3060243 49.65546979 -35.30911783 47.84722725 -35.31782833 46.03901879 C-35.3811708 31.99876632 -34.3666645 20.25926023 -24.2734375 9.62109375 C-17.17751839 3.15700305 -9.53976659 0.18491178 0 0 Z M-16.625 16.625 C-23.00772673 24.21526962 -25.09393082 30.0275698 -25.06892776 39.96168137 C-25.0709804 40.72114563 -25.07303303 41.48060989 -25.07514787 42.26308823 C-25.08081757 44.81658272 -25.07936065 47.37002327 -25.07794189 49.92352295 C-25.08052554 51.76933519 -25.0835387 53.61514686 -25.0869453 55.46095777 C-25.0950185 60.54019336 -25.09680505 65.61941483 -25.09754276 70.69865608 C-25.09939274 76.17391464 -25.10693976 81.64916585 -25.11367798 87.12442017 C-25.12726374 99.09955208 -25.1332863 111.07468065 -25.13768864 123.04981899 C-25.14045044 130.52537291 -25.14468767 138.00092553 -25.14919281 145.47647858 C-25.16138541 166.1693806 -25.17172037 186.86228167 -25.1750679 207.55518723 C-25.17528953 208.8931167 -25.17551132 210.23104617 -25.17573325 211.56897564 C-25.17595389 212.91012419 -25.17617438 214.25127274 -25.1763947 215.59242129 C-25.17683725 218.28296836 -25.17728437 220.97351543 -25.17773438 223.6640625 C-25.17784377 224.33116076 -25.17795316 224.99825903 -25.17806586 225.68557239 C-25.1816968 247.3180752 -25.19761876 268.9505445 -25.22092474 290.58303448 C-25.24552311 313.45695304 -25.25923401 336.33085813 -25.26043582 359.20479131 C-25.26135304 371.67270698 -25.26711731 384.14057877 -25.28525543 396.60848236 C-25.30064428 407.2240444 -25.30578402 417.83954899 -25.29751733 428.45512006 C-25.29360664 433.87187581 -25.29456097 439.28851585 -25.30857468 444.70525742 C-25.32128814 449.66473004 -25.32013848 454.62399969 -25.30798396 459.58347192 C-25.30602255 461.37687778 -25.30912585 463.17029788 -25.31782833 464.96368369 C-25.43751122 481.22895967 -25.43751122 481.22895967 -17.9375 495.375 C-10.9960896 500.74168028 -5.54269851 503.01310998 3.3046875 502.88671875 C10.67787619 501.88267746 16.72159796 498.05274916 23.0625 494.375 C24.36791748 493.62694092 24.36791748 493.62694092 25.69970703 492.86376953 C31.77572605 489.37558658 37.81429818 485.82595435 43.84765625 482.26464844 C49.19223151 479.12316814 54.5648477 476.03063694 59.9375 472.9375 C62.12239701 471.67838746 64.30729284 470.41927287 66.4921875 469.16015625 C67.57725586 468.53512207 68.66232422 467.91008789 69.78027344 467.26611328 C75.20909942 464.13819852 80.63569281 461.00641552 86.0625 457.875 C88.22915583 456.62498121 90.3958225 455.37498122 92.5625 454.125 C93.635 453.50625 94.7075 452.8875 95.8125 452.25 C261.5625 356.625 261.5625 356.625 264.81298828 354.74975586 C266.97807071 353.50064482 269.14310982 352.25145871 271.30810547 351.00219727 C276.74865706 347.86297691 282.18997216 344.72509437 287.6328125 341.58984375 C298.08456199 335.56752671 308.52549548 329.52830663 318.9375 323.4375 C327.6151265 318.36224638 336.3287091 313.35268607 345.0625 308.375 C357.77878551 301.12614302 370.44548652 293.79551471 383.0625 286.375 C383.85624023 285.90916504 384.64998047 285.44333008 385.46777344 284.96337891 C387.56478323 283.73046131 389.65823782 282.49179466 391.75 281.25 C392.86761719 280.58742188 393.98523438 279.92484375 395.13671875 279.2421875 C399.75178718 276.29692354 403.23119613 273.76942032 405.8125 268.875 C406.21984375 268.1221875 406.6271875 267.369375 407.046875 266.59375 C409.53477345 261.15864877 409.99483838 255.54881511 408.30859375 249.80859375 C405.62578017 242.74911173 402.55124243 237.92403102 395.9375 234 C395.39311279 233.67459229 394.84872559 233.34918457 394.2878418 233.01391602 C392.22066003 231.78694537 390.14251534 230.58009172 388.0625 229.375 C387.16128418 228.85115723 386.26006836 228.32731445 385.33154297 227.78759766 C379.32054179 224.29794021 373.29838439 220.82795086 367.27081299 217.36700439 C361.19609663 213.87880741 355.12918029 210.37714789 349.0625 206.875 C342.54024118 203.11123284 336.01736227 199.34855372 329.4921875 195.58984375 C319.04043801 189.56752671 308.59950452 183.52830663 298.1875 177.4375 C289.50987759 172.36224877 280.79644432 167.35241233 272.0625 162.375 C262.34134383 156.8349827 252.65355342 151.24125191 242.99560547 145.59155273 C232.47165375 139.43733258 221.90869863 133.35130004 211.34472656 127.26611328 C205.91590058 124.13819852 200.48930719 121.00641552 195.0625 117.875 C192.89584417 116.62498121 190.7291775 115.37498122 188.5625 114.125 C71.5625 46.625 71.5625 46.625 68.31005859 44.74853516 C66.15159502 43.50330516 63.99306677 42.25818728 61.83447266 41.01318359 C56.29175259 37.81613663 50.75029992 34.61692405 45.2109375 31.4140625 C30.94275836 23.16378038 30.94275836 23.16378038 16.625 15 C15.98675293 14.63664551 15.34850586 14.27329102 14.69091797 13.89892578 C3.96666284 7.86185556 -7.27472404 8.79686199 -16.625 16.625 Z " fill="#000000" transform="translate(63.9375,-0.37499999999999994)"/>
</svg>
