<svg width="20" height="20" viewBox="0 0 20 20" fill="none" xmlns="http://www.w3.org/2000/svg">
<path d="M18 5.423V16.385C18 16.845 17.846 17.2293 17.538 17.538C17.23 17.8467 16.8453 18.0007 16.384 18H3.616C3.15533 18 2.771 17.846 2.463 17.538C2.155 17.23 2.00067 16.8453 2 16.384V3.616C2 3.15533 2.15433 2.771 2.463 2.463C2.77167 2.155 3.156 2.00067 3.616 2H14.577L18 5.423ZM17 5.85L14.15 3H3.616C3.436 3 3.28833 3.05767 3.173 3.173C3.05767 3.28833 3 3.436 3 3.616V16.385C3 16.5643 3.05767 16.7117 3.173 16.827C3.28833 16.9423 3.436 17 3.616 17H16.385C16.5643 17 16.7117 16.9423 16.827 16.827C16.9423 16.7117 17 16.564 17 16.384V5.85ZM10 14.538C10.5513 14.538 11.0227 14.3427 11.414 13.952C11.8053 13.5613 12.0007 13.09 12 12.538C11.9993 11.986 11.8037 11.515 11.413 11.125C11.0223 10.735 10.5513 10.5397 10 10.539C9.44867 10.5383 8.97767 10.7337 8.587 11.125C8.19633 11.5163 8.00067 11.9873 8 12.538C7.99933 13.0887 8.195 13.56 8.587 13.952C8.979 14.344 9.45 14.5393 10 14.538ZM4.77 7.77H12.192V4.77H4.77V7.77ZM3 5.85V17V3V5.85Z" fill="#344054"/>
</svg>
