<svg width="250" height="272" viewBox="0 0 250 272" fill="none" xmlns="http://www.w3.org/2000/svg">
<g filter="url(#filter0_dddddd_237_4566)">
<rect x="80" y="1.29639" width="90" height="90" rx="20" fill="#4443E4"/>
</g>
<path d="M144.293 67.0035C144.683 67.394 145.317 67.394 145.707 67.0035C146.098 66.613 146.098 65.9798 145.707 65.5893L145 66.2964L144.293 67.0035ZM145 66.2964L145.707 65.5893L133.69 53.572L132.983 54.2791L132.276 54.9863L144.293 67.0035L145 66.2964ZM137.931 42.2619H136.931C136.931 51.0794 129.783 58.2274 120.966 58.2274V59.2274V60.2274C130.888 60.2274 138.931 52.184 138.931 42.2619H137.931ZM120.966 59.2274V58.2274C112.148 58.2274 105 51.0794 105 42.2619H104H103C103 52.184 111.043 60.2274 120.966 60.2274V59.2274ZM104 42.2619H105C105 33.4444 112.148 26.2964 120.966 26.2964V25.2964V24.2964C111.043 24.2964 103 32.3398 103 42.2619H104ZM120.966 25.2964V26.2964C129.783 26.2964 136.931 33.4444 136.931 42.2619H137.931H138.931C138.931 32.3398 130.888 24.2964 120.966 24.2964V25.2964Z" fill="white"/>
<defs>
<filter id="filter0_dddddd_237_4566" x="0" y="9.04799e-05" width="250" height="271.296" filterUnits="userSpaceOnUse" color-interpolation-filters="sRGB">
<feFlood flood-opacity="0" result="BackgroundImageFix"/>
<feColorMatrix in="SourceAlpha" type="matrix" values="0 0 0 0 0 0 0 0 0 0 0 0 0 0 0 0 0 0 127 0" result="hardAlpha"/>
<feOffset dy="1.85185"/>
<feGaussianBlur stdDeviation="1.57407"/>
<feColorMatrix type="matrix" values="0 0 0 0 0.588235 0 0 0 0 0.447059 0 0 0 0 1 0 0 0 0.0168519 0"/>
<feBlend mode="normal" in2="BackgroundImageFix" result="effect1_dropShadow_237_4566"/>
<feColorMatrix in="SourceAlpha" type="matrix" values="0 0 0 0 0 0 0 0 0 0 0 0 0 0 0 0 0 0 127 0" result="hardAlpha"/>
<feOffset dy="8.14815"/>
<feGaussianBlur stdDeviation="3.25926"/>
<feColorMatrix type="matrix" values="0 0 0 0 0.588235 0 0 0 0 0.447059 0 0 0 0 1 0 0 0 0.0274815 0"/>
<feBlend mode="normal" in2="effect1_dropShadow_237_4566" result="effect2_dropShadow_237_4566"/>
<feColorMatrix in="SourceAlpha" type="matrix" values="0 0 0 0 0 0 0 0 0 0 0 0 0 0 0 0 0 0 127 0" result="hardAlpha"/>
<feOffset dy="20"/>
<feGaussianBlur stdDeviation="6.5"/>
<feColorMatrix type="matrix" values="0 0 0 0 0.588235 0 0 0 0 0.447059 0 0 0 0 1 0 0 0 0.035 0"/>
<feBlend mode="normal" in2="effect2_dropShadow_237_4566" result="effect3_dropShadow_237_4566"/>
<feColorMatrix in="SourceAlpha" type="matrix" values="0 0 0 0 0 0 0 0 0 0 0 0 0 0 0 0 0 0 127 0" result="hardAlpha"/>
<feOffset dy="38.5185"/>
<feGaussianBlur stdDeviation="12.7407"/>
<feColorMatrix type="matrix" values="0 0 0 0 0.588235 0 0 0 0 0.447059 0 0 0 0 1 0 0 0 0.0425185 0"/>
<feBlend mode="normal" in2="effect3_dropShadow_237_4566" result="effect4_dropShadow_237_4566"/>
<feColorMatrix in="SourceAlpha" type="matrix" values="0 0 0 0 0 0 0 0 0 0 0 0 0 0 0 0 0 0 127 0" result="hardAlpha"/>
<feOffset dy="64.8148"/>
<feGaussianBlur stdDeviation="23.4259"/>
<feColorMatrix type="matrix" values="0 0 0 0 0.588235 0 0 0 0 0.447059 0 0 0 0 1 0 0 0 0.0531481 0"/>
<feBlend mode="normal" in2="effect4_dropShadow_237_4566" result="effect5_dropShadow_237_4566"/>
<feColorMatrix in="SourceAlpha" type="matrix" values="0 0 0 0 0 0 0 0 0 0 0 0 0 0 0 0 0 0 127 0" result="hardAlpha"/>
<feOffset dy="100"/>
<feGaussianBlur stdDeviation="40"/>
<feColorMatrix type="matrix" values="0 0 0 0 0.588235 0 0 0 0 0.447059 0 0 0 0 1 0 0 0 0.07 0"/>
<feBlend mode="normal" in2="effect5_dropShadow_237_4566" result="effect6_dropShadow_237_4566"/>
<feBlend mode="normal" in="SourceGraphic" in2="effect6_dropShadow_237_4566" result="shape"/>
</filter>
</defs>
</svg>
