<svg width="43" height="43" viewBox="0 0 43 43" fill="none" xmlns="http://www.w3.org/2000/svg">
<path d="M41.2929 42.7071C41.6834 43.0976 42.3166 43.0976 42.7071 42.7071C43.0976 42.3166 43.0976 41.6834 42.7071 41.2929L42 42L41.2929 42.7071ZM42 42L42.7071 41.2929L30.6899 29.2757L29.9828 29.9828L29.2757 30.6899L41.2929 42.7071L42 42ZM34.931 17.9655H33.931C33.931 26.783 26.783 33.931 17.9655 33.931V34.931V35.931C27.8876 35.931 35.931 27.8876 35.931 17.9655H34.931ZM17.9655 34.931V33.931C9.14801 33.931 2 26.783 2 17.9655H1H0C0 27.8876 8.04344 35.931 17.9655 35.931V34.931ZM1 17.9655H2C2 9.14801 9.14801 2 17.9655 2V1V0C8.04344 0 0 8.04344 0 17.9655H1ZM17.9655 1V2C26.783 2 33.931 9.14801 33.931 17.9655H34.931H35.931C35.931 8.04344 27.8876 0 17.9655 0V1Z" fill="white"/>
</svg>
