<svg width="35" height="35" viewBox="0 0 35 35" fill="none" xmlns="http://www.w3.org/2000/svg">
<path d="M28.9846 16.4058C30.4946 16.4058 31.7188 15.1817 31.7188 13.6717C31.7188 12.1616 30.4945 10.9375 28.9845 10.9375C27.4743 10.9375 26.25 12.1617 26.25 13.6719V16.4058H28.9846ZM21.3281 16.4058C22.8383 16.4058 24.0625 15.1816 24.0625 13.6714V6.01563C24.0625 4.50547 22.8383 3.28125 21.3281 3.28125C19.818 3.28125 18.5938 4.50547 18.5938 6.01563V13.6714C18.5938 15.1816 19.818 16.4058 21.3281 16.4058Z" fill="#2EB67D"/>
<path d="M6.0154 18.5942C4.50536 18.5942 3.28125 19.8184 3.28125 21.3284C3.28125 22.8384 4.50548 24.0626 6.0155 24.0626C7.52566 24.0626 8.75 22.8383 8.75 21.3282V18.5942H6.0154ZM13.6719 18.5942C12.1617 18.5942 10.9375 19.8185 10.9375 21.3286V28.9844C10.9375 30.4946 12.1617 31.7188 13.6719 31.7188C15.182 31.7188 16.4062 30.4946 16.4062 28.9844V21.3286C16.4062 19.8185 15.182 18.5942 13.6719 18.5942Z" fill="#E01E5A"/>
<path d="M18.5942 28.9846C18.5942 30.4946 19.8184 31.7188 21.3284 31.7188C22.8384 31.7188 24.0626 30.4945 24.0626 28.9845C24.0626 27.4743 22.8383 26.25 21.3282 26.25H18.5942V28.9846ZM18.5942 21.3281C18.5942 22.8383 19.8185 24.0625 21.3286 24.0625H28.9844C30.4946 24.0625 31.7188 22.8383 31.7188 21.3281C31.7188 19.818 30.4946 18.5938 28.9844 18.5938H21.3286C19.8185 18.5938 18.5942 19.818 18.5942 21.3281Z" fill="#ECB22E"/>
<path d="M16.4058 6.0154C16.4058 4.50536 15.1817 3.28125 13.6717 3.28125C12.1616 3.28125 10.9375 4.50548 10.9375 6.0155C10.9375 7.52567 12.1617 8.75 13.6719 8.75H16.4058V6.0154ZM16.4058 13.6719C16.4058 12.1617 15.1816 10.9375 13.6714 10.9375H6.01563C4.50547 10.9375 3.28125 12.1617 3.28125 13.6719C3.28125 15.182 4.50547 16.4062 6.01563 16.4062H13.6714C15.1816 16.4062 16.4058 15.182 16.4058 13.6719Z" fill="#36C5F0"/>
</svg>
