<svg width="20" height="20" viewBox="0 0 20 20" fill="none" xmlns="http://www.w3.org/2000/svg">
<g clip-path="url(#clip0_4_3728)">
<path d="M12.6728 4.02931L15.0001 5.00002L15.9704 7.32736C15.9964 7.37936 16.0363 7.42311 16.0857 7.45369C16.1351 7.48427 16.192 7.50047 16.2501 7.50047C16.3082 7.50047 16.3652 7.48427 16.4146 7.45369C16.464 7.42311 16.5039 7.37936 16.5298 7.32736L17.5001 5.00002L19.8275 4.02931C19.8794 4.00336 19.923 3.96346 19.9535 3.9141C19.984 3.86473 20.0002 3.80785 20.0002 3.74982C20.0002 3.69179 19.984 3.63491 19.9535 3.58555C19.923 3.53618 19.8794 3.49629 19.8275 3.47033L17.5001 2.50002L16.5298 0.172673C16.5039 0.120671 16.464 0.0769242 16.4146 0.046346C16.3652 0.0157677 16.3082 -0.000431061 16.2501 -0.000431061C16.192 -0.000431061 16.1351 0.0157677 16.0857 0.046346C16.0363 0.0769242 15.9964 0.120671 15.9704 0.172673L15.0001 2.50002L12.6728 3.47033C12.6209 3.49629 12.5772 3.53618 12.5467 3.58555C12.5162 3.63491 12.5001 3.69179 12.5001 3.74982C12.5001 3.80785 12.5162 3.86473 12.5467 3.9141C12.5772 3.96346 12.6209 4.00336 12.6728 4.02931ZM19.8275 15.9703L17.5001 15L16.5298 12.6727C16.5039 12.6207 16.464 12.5769 16.4146 12.5463C16.3652 12.5158 16.3082 12.4996 16.2501 12.4996C16.192 12.4996 16.1351 12.5158 16.0857 12.5463C16.0363 12.5769 15.9964 12.6207 15.9704 12.6727L15.0001 15L12.6728 15.9703C12.6208 15.9962 12.577 16.0361 12.5465 16.0856C12.5159 16.135 12.4997 16.1919 12.4997 16.25C12.4997 16.3081 12.5159 16.3651 12.5465 16.4145C12.577 16.4639 12.6208 16.5038 12.6728 16.5297L15.0001 17.5L15.9704 19.8274C15.9964 19.8794 16.0363 19.9231 16.0857 19.9537C16.1351 19.9843 16.192 20.0005 16.2501 20.0005C16.3082 20.0005 16.3652 19.9843 16.4146 19.9537C16.464 19.9231 16.5039 19.8794 16.5298 19.8274L17.5001 17.5L19.8275 16.5297C19.8795 16.5038 19.9232 16.4639 19.9538 16.4145C19.9844 16.3651 20.0006 16.3081 20.0006 16.25C20.0006 16.1919 19.9844 16.135 19.9538 16.0856C19.9232 16.0361 19.8795 15.9962 19.8275 15.9703ZM15.0001 9.98595C15 9.86983 14.9677 9.75602 14.9067 9.65719C14.8457 9.55836 14.7585 9.47839 14.6548 9.42619L10.2575 7.22345L8.05911 2.81838C7.84661 2.39377 7.15325 2.39377 6.94114 2.81838L4.7427 7.22345L0.345434 9.42619C0.24112 9.4779 0.153326 9.55773 0.0919476 9.65667C0.0305691 9.7556 -0.00195312 9.86972 -0.00195312 9.98615C-0.00195312 10.1026 0.0305691 10.2167 0.0919476 10.3156C0.153326 10.4146 0.24112 10.4944 0.345434 10.5461L4.7427 12.7488L6.94114 17.1539C6.99305 17.2577 7.07284 17.345 7.17157 17.406C7.2703 17.467 7.38406 17.4993 7.50012 17.4993C7.61618 17.4993 7.72994 17.467 7.82867 17.406C7.9274 17.345 8.00719 17.2577 8.05911 17.1539L10.2575 12.7488L14.6548 10.5469C14.7587 10.4946 14.846 10.4144 14.907 10.3154C14.9679 10.2163 15.0002 10.1023 15.0001 9.98595Z" fill="#2188F9"/>
</g>
<defs>
<clipPath id="clip0_4_3728">
<rect width="20" height="20" fill="white"/>
</clipPath>
</defs>
</svg>
