<svg width="36" height="47" viewBox="0 0 36 47" fill="none" xmlns="http://www.w3.org/2000/svg">
<path d="M34.6551 11.8561V40.3561C34.6551 43.5101 32.1091 46.0561 28.9551 46.0561H6.15508C3.00108 46.0561 0.455078 43.5101 0.455078 40.3561V6.15605C0.455078 3.00205 3.00108 0.456055 6.15508 0.456055H23.2551L34.6551 11.8561Z" fill="white"/>
<path d="M28.956 46.512H6.156C2.736 46.512 0 43.738 0 40.356V6.156C0 2.736 2.736 0 6.156 0H23.256C23.37 0 23.484 0.038 23.598 0.152L34.998 11.552C35.074 11.628 35.15 11.78 35.15 11.894V40.394C35.112 43.776 32.376 46.512 28.956 46.512ZM6.156 0.912C3.268 0.912 0.912001 3.268 0.912001 6.156V40.356C0.912001 43.244 3.268 45.6 6.156 45.6H28.956C31.844 45.6 34.2 43.244 34.2 40.356V12.046L23.066 0.912H6.156Z" fill="#565D6D"/>
<path d="M28.9552 40.6419H6.15522C5.88922 40.6419 5.69922 40.4139 5.69922 40.1859C5.69922 39.9579 5.92722 39.7299 6.15522 39.7299H28.9552C29.2212 39.7299 29.4112 39.9579 29.4112 40.1859C29.4112 40.4139 29.2212 40.6419 28.9552 40.6419ZM28.9552 36.0819H6.15522C5.88922 36.0819 5.69922 35.8539 5.69922 35.6259C5.69922 35.3979 5.92722 35.1699 6.15522 35.1699H28.9552C29.2212 35.1699 29.4112 35.3979 29.4112 35.6259C29.4112 35.8539 29.2212 36.0819 28.9552 36.0819ZM28.9552 31.5219H6.15522C5.88922 31.5219 5.69922 31.2939 5.69922 31.0659C5.69922 30.8379 5.92722 30.6099 6.15522 30.6099H28.9552C29.2212 30.6099 29.4112 30.8379 29.4112 31.0659C29.4112 31.2939 29.2212 31.5219 28.9552 31.5219Z" fill="#565D6D"/>
<path opacity="0.2" d="M34.5147 13.586V12.066L23.1147 0.666016H21.5947V6.36602C21.5947 10.356 24.8247 13.586 28.8147 13.586H34.5147Z" fill="#565D6D"/>
<path d="M23.1055 6.37578C23.1055 9.52978 25.6515 12.0758 28.8055 12.0758H34.5055L23.1055 0.675781V6.37578Z" fill="#4443E4"/>
<path d="M34.5909 12.4462H28.8909C25.4709 12.4462 22.7349 9.67219 22.7349 6.29019V0.590191C22.7349 0.400191 22.8489 0.210191 23.0389 0.134191C23.2289 0.0581914 23.4189 0.0961914 23.5709 0.248191L34.9709 11.6482C35.1229 11.8002 35.1609 11.9902 35.0849 12.1802C34.9709 12.3322 34.7809 12.4462 34.5909 12.4462ZM23.6469 1.73019V6.29019C23.6469 9.17819 26.0029 11.5342 28.8909 11.5342H33.4509L23.6469 1.73019ZM11.0689 25.5182C11.0689 25.9742 10.7649 26.2782 10.3089 26.2782C9.85291 26.2782 9.58691 25.9742 9.58691 25.5182C9.58691 25.1002 9.89091 24.7962 10.3089 24.7962C10.7269 24.7962 11.0689 25.1002 11.0689 25.5182ZM13.3489 18.9442C13.3489 18.6782 13.5389 18.5262 13.8429 18.5262C14.1089 18.5262 14.3369 18.6782 14.3369 18.9442V20.2362H15.7049C15.9709 20.2362 16.0849 20.4262 16.0849 20.6542C16.0849 20.8822 15.9329 21.0722 15.7049 21.0722H14.3369V24.6822C14.3369 25.2142 14.5649 25.4422 14.9449 25.4422C15.2109 25.4422 15.4009 25.3662 15.5909 25.2522C15.6669 25.2142 15.7049 25.2142 15.7809 25.2142C15.9329 25.2142 16.0849 25.3282 16.1229 25.4802C16.1609 25.5562 16.1609 25.6322 16.1609 25.7082C16.1609 25.8602 16.0849 26.0122 15.9329 26.0882C15.6289 26.2402 15.3249 26.3162 14.8689 26.3162C13.9949 26.3162 13.3489 25.8602 13.3489 24.7582V21.1102H12.5129C12.2469 21.1102 12.1329 20.9202 12.1329 20.6922C12.1329 20.4642 12.2469 20.2742 12.5129 20.2742H13.3489V18.9442ZM16.8069 20.9202C16.7309 20.8442 16.6929 20.7302 16.6929 20.6542C16.6929 20.5022 16.7689 20.3502 16.9209 20.2742C17.0349 20.1982 17.1109 20.1602 17.2249 20.1602C17.3389 20.1602 17.4909 20.1982 17.5669 20.3502L19.0869 22.4402L20.5309 20.3502C20.6449 20.2362 20.7589 20.1602 20.8729 20.1602C20.9869 20.1602 21.0629 20.1982 21.1769 20.2742C21.2909 20.3502 21.4049 20.5022 21.4049 20.6542C21.4049 20.7302 21.3669 20.8442 21.2909 20.9202L19.6569 23.1242L21.4049 25.4802C21.4809 25.5562 21.5189 25.6702 21.5189 25.7462C21.5189 25.8982 21.4429 26.0502 21.3289 26.1262C21.2149 26.2022 21.1389 26.2402 21.0249 26.2402C20.9109 26.2402 20.7589 26.2022 20.6829 26.0502L19.0869 23.7702L17.4909 26.0502C17.3769 26.1642 17.2629 26.2402 17.1489 26.2402C17.0349 26.2402 16.9209 26.2022 16.8069 26.1262C16.6929 26.0122 16.6169 25.8982 16.6169 25.7462C16.6169 25.6702 16.6549 25.5562 16.7309 25.4802L18.5169 23.0862L16.8069 20.9202ZM23.3049 18.9442C23.3049 18.6782 23.4949 18.5262 23.7989 18.5262C24.0649 18.5262 24.2929 18.6782 24.2929 18.9442V20.2362H25.6609C25.9269 20.2362 26.0409 20.4262 26.0409 20.6542C26.0409 20.8822 25.8889 21.0722 25.6609 21.0722H24.2929V24.6822C24.2929 25.2142 24.5209 25.4422 24.9009 25.4422C25.1669 25.4422 25.3569 25.3662 25.5469 25.2522C25.6229 25.2142 25.6609 25.2142 25.7369 25.2142C25.8889 25.2142 26.0409 25.3282 26.0789 25.4802C26.1169 25.5562 26.1169 25.6322 26.1169 25.7082C26.1169 25.8602 26.0409 26.0122 25.8889 26.0882C25.5849 26.2402 25.2809 26.3162 24.8249 26.3162C23.9509 26.3162 23.3049 25.8602 23.3049 24.7582V21.1102H22.4689C22.2029 21.1102 22.0889 20.9202 22.0889 20.6922C22.0889 20.4642 22.2029 20.2742 22.4689 20.2742H23.3049V18.9442Z" fill="#565D6D"/>
</svg>
