<svg width="26" height="26" viewBox="0 0 26 26" fill="none" xmlns="http://www.w3.org/2000/svg">
<path d="M16.7009 10.6986L11.8259 7.44859C11.7035 7.36694 11.5613 7.32004 11.4143 7.31292C11.2674 7.3058 11.1212 7.33872 10.9915 7.40817C10.8618 7.47761 10.7534 7.58097 10.6778 7.70722C10.6023 7.83347 10.5624 7.97787 10.5625 8.125V14.625C10.5624 14.7721 10.6023 14.9165 10.6778 15.0428C10.7534 15.169 10.8618 15.2724 10.9915 15.3418C11.1212 15.4113 11.2674 15.4442 11.4143 15.4371C11.5613 15.43 11.7035 15.3831 11.8259 15.3014L16.7009 12.0514C16.8124 11.9772 16.9038 11.8767 16.967 11.7587C17.0302 11.6407 17.0633 11.5089 17.0633 11.375C17.0633 11.2411 17.0302 11.1093 16.967 10.9913C16.9038 10.8733 16.8124 10.7728 16.7009 10.6986ZM12.1875 13.1066V9.64844L14.7855 11.375L12.1875 13.1066ZM21.9375 4.0625H4.0625C3.63152 4.0625 3.2182 4.2337 2.91345 4.53845C2.6087 4.8432 2.4375 5.25652 2.4375 5.6875V17.0625C2.4375 17.4935 2.6087 17.9068 2.91345 18.2115C3.2182 18.5163 3.63152 18.6875 4.0625 18.6875H21.9375C22.3685 18.6875 22.7818 18.5163 23.0865 18.2115C23.3913 17.9068 23.5625 17.4935 23.5625 17.0625V5.6875C23.5625 5.25652 23.3913 4.8432 23.0865 4.53845C22.7818 4.2337 22.3685 4.0625 21.9375 4.0625ZM21.9375 17.0625H4.0625V5.6875H21.9375V17.0625ZM23.5625 21.125C23.5625 21.3405 23.4769 21.5472 23.3245 21.6995C23.1722 21.8519 22.9655 21.9375 22.75 21.9375H3.25C3.03451 21.9375 2.82785 21.8519 2.67548 21.6995C2.5231 21.5472 2.4375 21.3405 2.4375 21.125C2.4375 20.9095 2.5231 20.7028 2.67548 20.5505C2.82785 20.3981 3.03451 20.3125 3.25 20.3125H22.75C22.9655 20.3125 23.1722 20.3981 23.3245 20.5505C23.4769 20.7028 23.5625 20.9095 23.5625 21.125Z" fill="#4443E4"/>
</svg>
