<svg width="15" height="20" viewBox="0 0 15 20" fill="none" xmlns="http://www.w3.org/2000/svg">
<path d="M14.4492 3.82324L11.1719 0.545898C10.8203 0.194336 10.3438 -0.00488281 9.84766 -0.00488281H1.875C0.839844 -0.000976562 0 0.838867 0 1.87402V18.124C0 19.1592 0.839844 19.999 1.875 19.999H13.125C14.1602 19.999 15 19.1592 15 18.124V5.15137C15 4.65527 14.8008 4.1748 14.4492 3.82324ZM13.5664 4.70996C13.6484 4.79199 13.7031 4.88965 13.7305 4.99902H10V1.26855C10.1094 1.2959 10.207 1.35059 10.2891 1.43262L13.5664 4.70996ZM13.125 18.749H1.875C1.53125 18.749 1.25 18.4678 1.25 18.124V1.87402C1.25 1.53027 1.53125 1.24902 1.875 1.24902H8.75V5.31152C8.75 5.83106 9.16797 6.24902 9.6875 6.24902H13.75V18.124C13.75 18.4678 13.4688 18.749 13.125 18.749ZM11.0312 9.12012C10.7656 10.4014 9.76172 14.5771 9.72656 14.9912C9.5 13.8545 9.69922 15.0537 8.09375 9.09668C8.03906 8.89355 7.85156 8.74902 7.64062 8.74902H7.39062C7.17969 8.74902 6.99219 8.88965 6.9375 9.09668C5.44141 14.6553 5.47656 14.5889 5.39844 15.1396C5.23828 14.2061 5.48047 15.0264 4.05469 9.1084C4.00391 8.89746 3.81641 8.74902 3.59766 8.74902H3.31641C3.01172 8.74902 2.78906 9.03418 2.86328 9.33105C3.23438 10.8154 4.21094 14.6982 4.51172 15.8936C4.5625 16.1006 4.75 16.249 4.96484 16.249H5.62891C5.83984 16.249 6.02734 16.1045 6.08203 15.9014C7.41797 10.9131 7.39062 11.0811 7.51562 10.3193C7.76953 11.5342 7.52344 10.5928 8.94922 15.9014C9.00391 16.1045 9.19141 16.249 9.40234 16.249H9.94922C10.1641 16.249 10.4844 16.1045 10.5391 15.8975L12.2109 9.33496C12.2852 9.03809 12.0625 8.74902 11.7578 8.74902H11.4922C11.2695 8.74902 11.0781 8.90527 11.0312 9.12012Z" fill="#4443E4"/>
</svg>
